<svg width="100" height="100" xmlns="http://www.w3.org/2000/svg" preserveAspectRatio="xMidYMid">
 <defs>
  <linearGradient id="linearGradient-1" y2="49.997619%" x2="100.032232%" y1="49.997619%" x1="0.00388991071%">
   <stop offset="0%" stop-opacity="0.1" stop-color="#000000"/>
   <stop offset="100%" stop-opacity="0.2" stop-color="#000000"/>
  </linearGradient>
 </defs>
 <g>
  <title>background</title>
  <rect fill="none" id="canvas_background" height="102" width="102" y="-1" x="-1"/>
 </g>
 <g>
  <title>Layer 1</title>
  <g stroke="null" id="svg_1">
   <path stroke="null" id="svg_2" fill="#E3E3E3" d="m93.502795,87.829469l-87.127802,0c-3.378425,0 -6.223413,-2.756084 -6.223413,-6.223417l0,-62.945391c0,-3.378425 2.756084,-6.223413 6.223413,-6.223413l87.127802,0c3.378425,0 6.223417,2.756084 6.223417,6.223413l0,62.945391c0,3.467334 -2.756084,6.223417 -6.223417,6.223417l0,0z"/>
   <path stroke="null" id="svg_3" fill="#231F20" opacity="0.1" d="m12.598406,87.829469l37.251583,-29.961295l0.266717,-1.600308l-38.407359,-27.649741l-0.088904,57.877753l0.977963,1.333592z"/>
   <path stroke="null" id="svg_4" fill="#D54B3D" d="m6.374993,87.829469c-3.46733,0 -6.223413,-2.756084 -6.223413,-6.223417l0,-63.034295c0,-3.467334 2.756084,-4.089675 6.223413,-4.089675c3.46733,0 6.223413,0.71125 6.223413,4.089675l0,69.257712l-6.223413,0l0,0z"/>
   <path stroke="null" id="svg_5" fill="#D72B27" d="m6.374993,15.37114c4.445296,0 5.334355,1.333592 5.334355,3.200617l0,68.368654l-5.334355,0c-2.933896,0 -5.334355,-2.400463 -5.334355,-5.334359l0,-63.034295c0,-1.955933 0.889058,-3.200617 5.334355,-3.200617l0,0zm0,-0.889058c-3.46733,0 -6.223413,0.71125 -6.223413,4.089675l0,63.034295c0,3.467334 2.756084,6.223417 6.223413,6.223417l6.223413,0l0,-69.257712c0,-3.467334 -2.756084,-4.089675 -6.223413,-4.089675l0,0l0,0z"/>
   <path stroke="null" id="svg_6" fill="#D54B3D" d="m93.502795,87.829469l-6.223413,0l0,-69.435525c0,-3.467334 2.756084,-3.911863 6.223413,-3.911863c3.467334,0 6.223417,0.444529 6.223417,3.911863l0,63.301016c0,3.378425 -2.756084,6.134509 -6.223417,6.134509l0,0z"/>
   <path stroke="null" id="svg_7" fill="#D72B27" d="m93.502795,15.37114c4.000767,0 5.334355,0.800154 5.334355,3.022804l0,63.301016c0,2.933896 -2.400459,5.334355 -5.334355,5.334355l-5.334355,0l0,-68.635371c0,-2.311554 1.333588,-3.022804 5.334355,-3.022804l0,0zm0,-0.889058c-3.46733,0 -6.223413,0.444529 -6.223413,3.911863l0,69.524429l6.223413,0c3.467334,0 6.223417,-2.756084 6.223417,-6.223413l0,-63.301016c0,-3.467334 -2.756084,-3.911863 -6.223417,-3.911863l0,0l0,0z"/>
   <path stroke="null" id="svg_8" fill="url(#linearGradient-1)" d="m66.831021,87.829469l-66.158556,-66.672445l3.479878,1.415496l46.053268,33.161912l49.520601,-36.312411l0,62.272939c0,3.378425 -2.756084,6.134509 -6.223417,6.134509l-26.671774,0z"/>
   <path stroke="null" id="svg_9" fill="#D54B3D" d="m49.84999,57.868174l-47.031235,-34.139875c-2.756084,-2.044838 -3.556238,-5.956697 -1.5114,-8.71278c2.044838,-2.756084 6.045605,-3.378425 8.890593,-1.333588l39.740946,28.894424l40.007667,-29.250049c2.75608,-2.044838 6.667943,-1.422496 8.71278,1.422496c2.044834,2.756084 1.422492,6.667943 -1.422496,8.71278l-47.386856,34.406592l0,0z"/>
   <path stroke="null" id="svg_10" fill="#D72B27" d="m93.502795,12.970682l0,0c1.689213,0 3.289521,0.800154 4.356392,2.22265c1.689213,2.400459 1.155775,5.689976 -1.155779,7.468097l-46.853418,34.139875l-46.497797,-33.78425c-2.400463,-1.778121 -3.022804,-5.156546 -1.333592,-7.468101c0.977967,-1.333588 2.667179,-2.222646 4.445296,-2.222646c1.155779,0 2.311554,0.355625 3.200613,1.066871l39.652042,28.80552l0.533437,0.355621l0.533434,-0.355621l39.918759,-29.250049c0.977967,-0.622342 2.044838,-0.977967 3.200613,-0.977967l0,0zm0,-0.889058c-1.244683,0 -2.578271,0.355625 -3.645142,1.155775l-40.007663,29.250049l-39.740946,-28.894424c-1.066871,-0.800154 -2.400463,-1.155775 -3.73405,-1.155775c-1.955929,0 -3.911859,0.889058 -5.156542,2.578271c-1.955933,2.756084 -1.155779,6.667943 1.600304,8.71278l47.031235,34.228779l47.297947,-34.495496c2.756084,-2.044838 3.378425,-5.867792 1.422496,-8.71278c-1.244683,-1.778121 -3.111709,-2.667179 -5.067638,-2.667179l0,0l0,0z"/>
  </g>
 </g>
</svg>