<svg width="100" height="100" xmlns="http://www.w3.org/2000/svg">

 <g>
  <title>background</title>
  <rect fill="none" id="canvas_background" height="102" width="102" y="-1" x="-1"/>
 </g>
 <g>
  <title>Layer 1</title>
  <g stroke="null" id="svg_1">
   <path stroke="null" id="svg_2" fill="#484848" d="m50,0.13708c-27.53755,0 -49.86292,22.32471 -49.86292,49.86292s22.32537,49.86292 49.86292,49.86292c27.53821,0 49.86292,-22.32471 49.86292,-49.86292s-22.32471,-49.86292 -49.86292,-49.86292zm-20.1167,70.21565l-12.35844,3.31068l3.38315,-12.62339c-2.33034,-4.00579 -3.67369,-8.65982 -3.67369,-13.62866c0,-14.98397 12.14734,-27.13232 27.13298,-27.13232c14.98298,0 27.13132,12.14834 27.13132,27.13232c0,14.98397 -12.14834,27.13298 -27.13132,27.13298c-5.3282,0.00133 -10.29205,-1.53882 -14.484,-4.19162zm52.61677,8.56241l-11.24214,-3.01149c-3.81531,2.41245 -8.32971,3.81431 -13.17422,3.81431c-3.45395,0 -6.7387,-0.71207 -9.72293,-1.99425c14.98065,-1.96134 26.58813,-14.80213 26.58813,-30.31002c0,-4.4938 -0.98366,-8.75988 -2.73125,-12.60776c6.37668,4.46354 10.54802,11.8578 10.54802,20.2294c0,4.51973 -1.22102,8.7529 -3.34093,12.39733l3.07531,11.48248z"/>
  </g>
 </g>
</svg>