<svg width="100" height="100" xmlns="http://www.w3.org/2000/svg">

 <g>
  <title>background</title>
  <rect fill="none" id="canvas_background" height="102" width="102" y="-1" x="-1"/>
 </g>
 <g>
  <title>Layer 1</title>
  <g stroke="null" id="svg_1">
   <g stroke="null" id="svg_2">
    <path stroke="null" id="svg_3" fill="#ff7043" d="m87.72858,12.01318l-75.43657,0c-6.73393,0 -12.20783,5.4739 -12.20783,12.20783l0,51.55796c0,6.73393 5.4739,12.20783 12.20783,12.20783l75.41591,0c6.73393,0 12.20783,-5.4739 12.20783,-12.20783l0,-51.53731c0.02066,-6.73393 -5.45325,-12.22849 -12.18718,-12.22849zm6.63065,63.7658c0,3.65615 -2.9745,6.63065 -6.63065,6.63065l-75.43657,0c-3.65615,0 -6.63065,-2.9745 -6.63065,-6.63065l0,-51.53731c0,-3.65615 2.9745,-6.63065 6.63065,-6.63065l75.41591,0c3.65615,0 6.63065,2.9745 6.63065,6.63065l0,51.53731l0.02066,0z"/>
    <path stroke="null" id="svg_4" fill="#ff7043" d="m63.04438,49.35966l24.41567,-21.89561c1.13609,-1.03281 1.23937,-2.78859 0.20656,-3.94534c-1.03281,-1.13609 -2.78859,-1.23937 -3.94534,-0.20656l-33.66966,30.22007l-6.56868,-5.86637c-0.02066,-0.02066 -0.04131,-0.04131 -0.04131,-0.06197c-0.14459,-0.14459 -0.28919,-0.26853 -0.45444,-0.39247l-26.72917,-23.91992c-1.15675,-1.03281 -2.91253,-0.92953 -3.94534,0.22722c-1.03281,1.15675 -0.92953,2.91253 0.22722,3.94534l24.70486,22.08152l-24.60158,23.0317c-1.11544,1.05347 -1.17741,2.80925 -0.12394,3.94534c0.55772,0.57837 1.30134,0.88822 2.04497,0.88822c0.68166,0 1.36331,-0.24787 1.90037,-0.74362l24.97339,-23.3622l6.77525,6.05228c0.53706,0.47509 1.19806,0.70231 1.85906,0.70231c0.661,0 1.34266,-0.24787 1.85906,-0.72297l6.96115,-6.23818l24.82879,23.58942c0.53706,0.51641 1.23937,0.76428 1.92103,0.76428c0.74362,0 1.46659,-0.28919 2.02431,-0.86756c1.05347,-1.11544 1.01216,-2.89187 -0.10328,-3.94534l-24.51895,-23.27958z"/>
   </g>
  </g>
 </g>
</svg>