<svg width="100" height="100" xmlns="http://www.w3.org/2000/svg">

 <g>
  <title>background</title>
  <rect fill="none" id="canvas_background" height="102" width="102" y="-1" x="-1"/>
 </g>
 <g>
  <title>Layer 1</title>
  <g stroke="null" id="svg_1">
   <g stroke="null" id="svg_2">
    <path stroke="null" id="svg_3" fill="#ff7043" d="m99.70464,78.75721c0.21085,1.61536 -0.28142,3.01986 -1.47473,4.21352l-14.00996,13.90411c-0.63203,0.70225 -1.457,1.29969 -2.47527,1.79075c-1.01827,0.49175 -2.01881,0.80776 -3.00162,0.94804c-0.07023,0 -0.28142,0.01807 -0.63272,0.05319c-0.35061,0.03494 -0.80708,0.05284 -1.36888,0.05284c-1.33463,0 -3.49423,-0.22823 -6.47881,-0.68487s-6.63613,-1.58042 -10.95464,-3.37082c-4.31955,-1.79075 -9.2176,-4.47721 -14.69501,-8.05836c-5.47741,-3.58098 -11.30629,-8.4971 -17.48612,-14.74733c-4.91578,-4.84555 -8.98885,-9.48043 -12.21922,-13.90445c-3.23037,-4.42437 -5.82871,-8.515 -7.79502,-12.27206c-1.96648,-3.75706 -3.44122,-7.16299 -4.42437,-10.21779s-1.6503,-5.68826 -2.00142,-7.90036s-0.49158,-3.95018 -0.42135,-5.21424c0.07023,-1.26406 0.10534,-1.96631 0.10534,-2.10676c0.14045,-0.98316 0.45647,-1.98387 0.94804,-3.00214s1.08849,-1.84342 1.79075,-2.47544l14.00996,-14.00996c0.98316,-0.98316 2.10676,-1.47473 3.37082,-1.47473c0.91293,0 1.72052,0.26335 2.42278,0.79004s1.29917,1.17628 1.79075,1.94875l11.27117,21.38363c0.63203,1.12361 0.80759,2.35255 0.52669,3.68683c-0.2809,1.33428 -0.87782,2.45789 -1.79075,3.37082l-5.16157,5.16157c-0.14045,0.14045 -0.26335,0.36868 -0.36868,0.6847s-0.15801,0.57936 -0.15801,0.79004c0.2809,1.47473 0.91293,3.16014 1.89609,5.05623c0.8427,1.68541 2.14187,3.7395 3.89751,6.16228s4.24864,5.21406 7.479,8.37421c3.16014,3.23071 5.96916,5.74093 8.42705,7.53202c2.45737,1.79006 4.51215,3.1073 6.16245,3.95001c1.6503,0.8427 2.91435,1.35184 3.792,1.52689l1.31638,0.26352c0.14045,0 0.3692,-0.05284 0.68487,-0.15801c0.31601,-0.10551 0.54425,-0.22823 0.68487,-0.36886l6.0041,-6.10961c1.26475,-1.12343 2.73879,-1.68524 4.42437,-1.68524c1.19418,0 2.1417,0.2105 2.84396,0.63203l0.10517,0l20.33008,12.00854c1.47525,0.91362 2.35289,2.07199 2.63397,3.4765z"/>
   </g>
  </g>
 </g>
</svg>