<svg width="100" height="100" xmlns="http://www.w3.org/2000/svg">

 <g>
  <title>background</title>
  <rect fill="none" id="canvas_background" height="102" width="102" y="-1" x="-1"/>
 </g>
 <g>
  <title>Layer 1</title>
  <g stroke="null" id="svg_1">
   <path stroke="null" id="svg_2" fill="#ff7043" d="m3.91777,25.54821l92.16445,0c2.07652,0 3.76181,-1.68529 3.76181,-3.76181s-1.68529,-3.76181 -3.76181,-3.76181l-92.16445,0c-2.07652,0 -3.76181,1.68529 -3.76181,3.76181s1.68529,3.76181 3.76181,3.76181z"/>
   <path stroke="null" id="svg_3" fill="#ff7043" d="m3.91777,53.76181l92.16445,0c2.07652,0 3.76181,-1.68529 3.76181,-3.76181s-1.68529,-3.76181 -3.76181,-3.76181l-92.16445,0c-2.07652,0 -3.76181,1.68529 -3.76181,3.76181s1.68529,3.76181 3.76181,3.76181z"/>
   <path stroke="null" id="svg_4" fill="#ff7043" d="m3.91777,81.97542l92.16445,0c2.07652,0 3.76181,-1.68529 3.76181,-3.76181s-1.68529,-3.76181 -3.76181,-3.76181l-92.16445,0c-2.07652,0 -3.76181,1.68529 -3.76181,3.76181s1.68529,3.76181 3.76181,3.76181z"/>
  </g>
 </g>
</svg>