<svg width="100" height="100" xmlns="http://www.w3.org/2000/svg">
 <g>
  <title>background</title>
  <rect x="-1" y="-1" width="102" height="102" id="canvas_background" fill="none"/>
 </g>

 <title>Layer 1</title>
 <g>
  <title>Layer 1</title>
  <g stroke="null" id="svg_25">
   <g stroke="null" id="svg_1">
    <g stroke="null" id="svg_2">
     <path stroke="null" d="m98.34695,56.66854l-1.66714,0l0,-5.00141c-0.00438,-3.31052 -1.96722,-6.30469 -5.00141,-7.62882l0,-25.71391c-0.00042,-0.66269 -0.39303,-1.26202 -1.00028,-1.5271c0.65039,-1.04238 0.99674,-2.24563 1.00028,-3.47431c0,-3.68291 -2.98563,-6.66854 -6.66854,-6.66854c-3.68291,0 -6.66854,2.98563 -6.66854,6.66854c0.00688,1.17408 0.32697,2.32503 0.92693,3.33427l-58.53649,0c0.59996,-1.00924 0.92005,-2.16019 0.92693,-3.33427c0,-3.68291 -2.98563,-6.66854 -6.66854,-6.66854s-6.66854,2.98563 -6.66854,6.66854c0.00354,1.22868 0.34989,2.43193 1.00028,3.47431c-0.60725,0.26507 -0.99986,0.86441 -1.00028,1.5271l0,25.71391c-3.03419,1.32412 -4.99703,4.3183 -5.00141,7.62882l0,5.00141l-1.66714,0c-0.92068,0 -1.66714,0.74646 -1.66714,1.66714l0,23.33991c0,0.92068 0.74646,1.66714 1.66714,1.66714l1.66714,0l0,8.33568c0,0.92068 0.74646,1.66714 1.66714,1.66714l6.66854,0c0.92068,0 1.66714,-0.74646 1.66714,-1.66714l0,-8.33568l73.35399,0l0,8.33568c0,0.92068 0.74646,1.66714 1.66714,1.66714l6.66854,0c0.92068,0 1.66714,-0.74646 1.66714,-1.66714l0,-8.33568l1.66714,0c0.92068,0 1.66714,-0.74646 1.66714,-1.66714l0,-23.33991c0,-0.92068 -0.74646,-1.66714 -1.66714,-1.66714zm-13.33709,-46.67981c1.84156,0 3.33427,1.49271 3.33427,3.33427s-1.49271,3.33427 -3.33427,3.33427s-3.33427,-1.49271 -3.33427,-3.33427s1.49271,-3.33427 3.33427,-3.33427zm-70.01972,0c1.84156,0 3.33427,1.49271 3.33427,3.33427s-1.49271,3.33427 -3.33427,3.33427s-3.33427,-1.49271 -3.33427,-3.33427s1.49271,-3.33427 3.33427,-3.33427zm-3.33427,10.00282l76.68827,0l0,23.33991l-6.71189,0c1.10323,-1.43436 1.70444,-3.19173 1.71048,-5.00141l0,-3.33427c-0.00542,-4.6013 -3.73439,-8.33026 -8.33568,-8.33568l-13.33709,0c-4.6013,0.00542 -8.33026,3.73439 -8.33568,8.33568l0,3.33427c0.00604,1.80968 0.60725,3.56705 1.71048,5.00141l-10.08951,0c1.10323,-1.43436 1.70444,-3.19173 1.71048,-5.00141l0,-3.33427c-0.00542,-4.6013 -3.73439,-8.33026 -8.33568,-8.33568l-13.33709,0c-4.6013,0.00542 -8.33026,3.73439 -8.33568,8.33568l0,3.33427c0.00604,1.80968 0.60725,3.56705 1.71048,5.00141l-6.71189,0l0,-23.33991zm68.35258,15.00423l0,3.33427c0,2.76224 -2.23917,5.00141 -5.00141,5.00141l-13.33709,0c-2.76224,0 -5.00141,-2.23917 -5.00141,-5.00141l0,-3.33427c0,-2.76224 2.23917,-5.00141 5.00141,-5.00141l13.33709,0c2.76224,0 5.00141,2.23917 5.00141,5.00141zm-36.677,0l0,3.33427c0,2.76224 -2.23917,5.00141 -5.00141,5.00141l-13.33709,0c-2.76224,0 -5.00141,-2.23917 -5.00141,-5.00141l0,-3.33427c0,-2.76224 2.23917,-5.00141 5.00141,-5.00141l13.33709,0c2.76224,0 5.00141,2.23917 5.00141,5.00141zm-36.677,16.67136c0,-2.76224 2.23917,-5.00141 5.00141,-5.00141l76.68827,0c2.76224,0 5.00141,2.23917 5.00141,5.00141l0,5.00141l-86.69108,0l0,-5.00141zm3.33427,38.34413l-3.33427,0l0,-6.66854l3.33427,0l0,6.66854zm83.35681,0l-3.33427,0l0,-6.66854l3.33427,0l0,6.66854zm3.33427,-10.00282l-93.35963,0l0,-20.00563l93.35963,0l0,20.00563z" id="svg_3"/>
    </g>
   </g>
   <g stroke="null" id="svg_4">
    <g stroke="null" id="svg_5">
     <path stroke="null" d="m14.99014,73.33991l-6.66854,0c-0.92068,0 -1.66714,0.74646 -1.66714,1.66714s0.74646,1.66714 1.66714,1.66714l6.66854,0c0.92068,0 1.66714,-0.74646 1.66714,-1.66714s-0.74646,-1.66714 -1.66714,-1.66714z" id="svg_6"/>
    </g>
   </g>
   <g stroke="null" id="svg_7">
    <g stroke="null" id="svg_8">
     <path stroke="null" d="m91.6784,73.33991l-70.01972,0c-0.92068,0 -1.66714,0.74646 -1.66714,1.66714s0.74646,1.66714 1.66714,1.66714l70.01972,0c0.92068,0 1.66714,-0.74646 1.66714,-1.66714s-0.74646,-1.66714 -1.66714,-1.66714z" id="svg_9"/>
    </g>
   </g>
   <g stroke="null" id="svg_10"/>
   <g stroke="null" id="svg_11"/>
   <g stroke="null" id="svg_12"/>
   <g stroke="null" id="svg_13"/>
   <g stroke="null" id="svg_14"/>
   <g stroke="null" id="svg_15"/>
   <g stroke="null" id="svg_16"/>
   <g stroke="null" id="svg_17"/>
   <g stroke="null" id="svg_18"/>
   <g stroke="null" id="svg_19"/>
   <g stroke="null" id="svg_20"/>
   <g stroke="null" id="svg_21"/>
   <g stroke="null" id="svg_22"/>
   <g stroke="null" id="svg_23"/>
   <g stroke="null" id="svg_24"/>
  </g>
 </g>
</svg>