<svg width="99.99999999999999" height="99.99999999999999" xmlns="http://www.w3.org/2000/svg">

 <g>
  <title>background</title>
  <rect fill="none" id="canvas_background" height="102" width="102" y="-1" x="-1"/>
 </g>
 <g>
  <title>Layer 1</title>
  <g stroke="null" id="svg_1">
   <path stroke="null" id="svg_2" fill="#484848" d="m3.58678,61.66692l0,-42.47506c0,-2.36025 1.91329,-4.2737 4.2737,-4.2737l42.45321,0c2.36025,0 4.27354,1.91345 4.27354,4.2737l0,42.47523c0,0.78675 -0.63765,1.42457 -1.42457,1.42457l-48.15132,0c-0.78691,0 -1.42457,-0.63782 -1.42457,-1.42473zm34.28229,14.55105c0,4.89537 -3.96866,8.86387 -8.86387,8.86387c-4.89521,0 -8.86387,-3.9685 -8.86387,-8.86387c0,-4.89554 3.96866,-8.86387 8.86387,-8.86387c4.89521,0 8.86387,3.96833 8.86387,8.86387zm-4.4321,0c0,-2.44769 -1.98425,-4.43194 -4.43194,-4.43194s-4.4321,1.98425 -4.4321,4.43194s1.98441,4.4321 4.4321,4.4321s4.43194,-1.98441 4.43194,-4.4321zm-12.06617,-8.86403l-19.86239,0c-0.78675,0 -1.42457,0.63782 -1.42457,1.42457l0,4.32199c0,0.78675 0.63782,1.42457 1.42457,1.42457l15.92065,0c0.41564,-2.85207 1.85522,-5.37137 3.94175,-7.17113zm62.87528,8.86403c0,4.89537 -3.96866,8.86387 -8.86387,8.86387c-4.89537,0 -8.86387,-3.9685 -8.86387,-8.86387c0,-4.89554 3.9685,-8.86387 8.86387,-8.86387c4.89521,-0.00016 8.86387,3.96833 8.86387,8.86387zm-4.43177,0c0,-2.44769 -1.98441,-4.43194 -4.4321,-4.43194c-2.44785,0 -4.43194,1.98425 -4.43194,4.43194s1.98425,4.4321 4.43194,4.4321s4.4321,-1.98441 4.4321,-4.4321zm20.10186,-7.43947l0,4.32199c0,0.78675 -0.63782,1.42457 -1.42457,1.42457l-11.53357,0c-0.82492,-5.65765 -5.69403,-10.02026 -11.57549,-10.02026c-5.8826,0 -10.75188,4.36277 -11.5768,10.02026l-23.22439,0c-0.4158,-2.85191 -1.85522,-5.37137 -3.94175,-7.17113l22.02086,0l0,-40.74708c0,-1.5735 1.27564,-2.84914 2.84914,-2.84914l13.44882,0c3.78678,0 7.32609,1.88099 9.44492,5.01935l8.67008,12.84134c1.27172,1.8836 1.9513,4.10438 1.9513,6.3772l0,19.35834l3.46689,0c0.78675,0 1.42457,0.63782 1.42457,1.42457zm-14.45154,-26.83124l-6.93296,-9.85159c-0.26687,-0.3791 -0.70144,-0.6047 -1.16504,-0.6047l-10.81435,0c-0.78659,0 -1.42457,0.63782 -1.42457,1.42457l0,9.85159c0,0.78691 0.63782,1.42457 1.42457,1.42457l17.74764,0c1.15394,0 1.82895,-1.30059 1.16471,-2.24443z"/>
  </g>
 </g>
</svg>