<svg width="100.00000000000001" height="100.00000000000001" xmlns="http://www.w3.org/2000/svg">
 <g>
  <title>background</title>
  <rect x="-1" y="-1" width="102" height="102" id="canvas_background" fill="none"/>
 </g>

 <g>
  <title>Layer 1</title>
  <g stroke="null" id="svg_4">
   <path stroke="null" fill="#F4F4F4" d="m49.88603,0c-27.55123,0 -49.88603,22.3348 -49.88603,49.88603s22.3348,49.88603 49.88603,49.88603s49.88603,-22.3348 49.88603,-49.88603s-22.3348,-49.88603 -49.88603,-49.88603zm0,96.97998c-26.00916,0 -47.09394,-21.08459 -47.09394,-47.09394s21.08478,-47.09547 47.09394,-47.09547s47.09394,21.08211 47.09547,47.09547s-21.08631,47.09547 -47.09547,47.09394z" id="svg_1"/>
   <path stroke="null" fill="#F4F4F4" d="m52.57395,27.86164c3.11281,0 5.38425,-2.94461 5.38425,-5.97333c0,-1.85094 -1.09386,-3.11281 -3.28101,-3.11281c-2.86051,0 -5.13195,2.69213 -5.13195,5.88923c0,1.59712 1.08622,3.20265 3.03578,3.19691l-0.00707,0z" id="svg_2"/>
   <path stroke="null" fill="#F4F4F4" d="m54.92968,67.82283c-0.92528,1.51474 -2.35554,3.44959 -4.37468,3.44959c-1.00976,0 -1.93504,-0.75727 -1.93504,-2.35535c0,-0.75746 0.33659,-2.18753 0.58908,-3.28139l4.37487,-19.26557c0.4205,-1.59846 1.00919,-4.03809 1.00919,-4.96356c0,-2.52393 -1.85056,-4.62717 -4.79537,-4.62717c-4.54307,0 -9.67483,6.39401 -11.35739,9.33844l-0.33659,0.58888l1.85094,1.34616c1.51417,-2.35573 4.20629,-6.22562 6.56202,-6.22562c1.00957,0 1.33794,0.91744 1.33794,1.68255c0,0.58888 -0.42069,2.35573 -0.84137,4.03809l-4.03828,17.8355c-0.50459,2.10324 -0.75708,3.44921 -0.75708,5.29442c0,3.28751 1.93046,5.63846 4.79747,5.63674c5.46835,0 9.25415,-6.30991 11.35739,-9.84322l-1.93523,-1.09367l-1.50786,2.44518z" id="svg_3"/>
  </g>
 </g>
</svg>