<svg width="100.00000000000001" height="100.00000000000001" xmlns="http://www.w3.org/2000/svg">

 <g>
  <title>background</title>
  <rect fill="none" id="canvas_background" height="102" width="102" y="-1" x="-1"/>
 </g>
 <g>
  <title>Layer 1</title>
  <g stroke="null" id="svg_1">
   <g stroke="null" id="svg_2">
    <g stroke="null" id="svg_3">
     <g stroke="null" id="svg_4">
      <path stroke="null" id="svg_5" fill="#010002" d="m2.880285,83.911647c-3.647926,3.647926 -3.647926,9.555585 0,13.203512c1.823963,1.823963 4.214344,2.732771 6.60493,2.732771s4.780967,-0.908808 6.60493,-2.732771l30.658842,-30.66519l-13.20986,-13.197368l-30.658842,30.659046z"/>
      <polygon stroke="null" id="svg_6" fill="#010002" points="79.50578236579895,27.08844566345215 92.85879445075989,20.184537887573242 99.84952473640442,6.66976261138916 93.33183217048645,0.1520691066980362 79.82318806648254,7.14915132522583 72.90699696540833,20.489656448364258 56.66559910774231,36.74969482421875 63.25189137458801,43.348480224609375 "/>
      <path stroke="null" id="svg_7" fill="#010002" d="m82.431458,62.528253l-1.257546,-0.124505c-2.278367,0 -4.438577,0.466895 -6.455441,1.213928l-38.328416,-38.334559c0.747032,-2.016865 1.213928,-4.177074 1.213928,-6.455441l-0.124505,-1.257546c-0.659797,-9.717565 -8.665412,-17.41806 -18.550896,-17.41806c-2.876116,0 -5.571617,0.703415 -8.005616,1.867581l12.406718,12.406718c0.653653,0.653653 1.101914,1.425464 1.400686,2.241097c0.815428,2.203623 0.373516,4.780967 -1.400686,6.561312c-1.213928,1.213928 -2.807515,1.823963 -4.401102,1.823963c-0.734541,0 -1.462939,-0.161775 -2.16021,-0.423277c-0.815428,-0.311264 -1.587444,-0.747032 -2.241097,-1.406829l-12.406513,-12.400575c-1.164166,2.433999 -1.867581,5.1295 -1.867581,8.005616c0,9.885483 7.700495,17.891099 17.41806,18.550896l1.257546,0.124505c2.278367,0 4.438577,-0.466895 6.455441,-1.20758l38.322067,38.328416c-0.734541,2.016865 -1.201436,4.177074 -1.201436,6.455441l0.130649,1.257546c0.64751,9.723708 8.659269,17.41806 18.544752,17.41806c2.876116,0 5.57776,-0.690923 8.005616,-1.867581l-12.406718,-12.406718c-0.64751,-0.64751 -1.101914,-1.425464 -1.413177,-2.234749c-0.815428,-2.203623 -0.373516,-4.78711 1.413177,-6.567455c1.201436,-1.213928 2.807515,-1.823963 4.401102,-1.823963c0.734541,0 1.45659,0.155632 2.166353,0.423277c0.815428,0.30512 1.593587,0.740889 2.234749,1.400686l12.406718,12.406718c1.17031,-2.440347 1.867581,-5.1295 1.867581,-8.005616c-0.006143,-9.885893 -7.706639,-17.891509 -17.424204,-18.551305z"/>
     </g>
    </g>
   </g>
   <g stroke="null" id="svg_8"/>
   <g stroke="null" id="svg_9"/>
   <g stroke="null" id="svg_10"/>
   <g stroke="null" id="svg_11"/>
   <g stroke="null" id="svg_12"/>
   <g stroke="null" id="svg_13"/>
   <g stroke="null" id="svg_14"/>
   <g stroke="null" id="svg_15"/>
   <g stroke="null" id="svg_16"/>
   <g stroke="null" id="svg_17"/>
   <g stroke="null" id="svg_18"/>
   <g stroke="null" id="svg_19"/>
   <g stroke="null" id="svg_20"/>
   <g stroke="null" id="svg_21"/>
   <g stroke="null" id="svg_22"/>
  </g>
  <g id="svg_23"/>
  <g id="svg_24"/>
  <g id="svg_25"/>
  <g id="svg_26"/>
  <g id="svg_27"/>
  <g id="svg_28"/>
  <g id="svg_29"/>
  <g id="svg_30"/>
  <g id="svg_31"/>
  <g id="svg_32"/>
  <g id="svg_33"/>
  <g id="svg_34"/>
  <g id="svg_35"/>
  <g id="svg_36"/>
  <g id="svg_37"/>
 </g>
</svg>