<svg width="100" height="100" xmlns="http://www.w3.org/2000/svg">
 <g>
  <title>background</title>
  <rect x="-1" y="-1" width="102" height="102" id="canvas_background" fill="none"/>
 </g>

 <g>
  <title>Layer 1</title>
  <g stroke="null" id="svg_33">
   <g stroke="null" id="svg_1">
    <path stroke="null" d="m13.18422,8.31586l-5.48606,0c-1.58276,0 -2.86564,1.28306 -2.86564,2.86564l0,78.17705c0,1.28443 1.04136,2.32559 2.32559,2.32559l6.56615,0c1.28443,0 2.32559,-1.04136 2.32559,-2.32559l0,-78.17705c0,-1.58276 -1.28306,-2.86564 -2.86564,-2.86564z" fill="#D4D2D3" id="svg_2"/>
    <path stroke="null" d="m86.81577,8.31586l5.48606,0c1.58276,0 2.86564,1.28306 2.86564,2.86564l0,78.17705c0,1.28443 -1.04136,2.32559 -2.32559,2.32559l-6.56615,0c-1.28443,0 -2.32559,-1.04136 -2.32559,-2.32559l0,-78.17705c0,-1.58276 1.28306,-2.86564 2.86564,-2.86564z" fill="#D4D2D3" id="svg_3"/>
   </g>
   <g stroke="null" id="svg_4">
    <polygon stroke="null" points="14.663650512695312,15.547575950622559 5.201897621154785,19.900421142578125 0.17978668212890625,30.031829833984375 0.17978668212890625,45.66078186035156 19.933887481689453,33.527217864990234 30.29279327392578,15.547575950622559 " fill="#465059" id="svg_5"/>
    <polygon stroke="null" points="44.69667053222656,15.547575950622559 19.933887481689453,33.527217864990234 8.73757553100586,51.506675720214844 24.366718292236328,51.506675720214844 46.98665237426758,36.90877151489258 60.32562255859375,15.547575950622559 " fill="#465059" id="svg_6"/>
    <polygon stroke="null" points="74.72930908203125,15.547575950622559 46.98665237426758,36.90877151489258 38.77021026611328,51.506675720214844 54.399349212646484,51.506675720214844 77.10977935791016,36.11865234375 90.35845184326172,15.547575950622559 " fill="#465059" id="svg_7"/>
    <polygon stroke="null" points="74.72930908203125,39.31940460205078 68.80323028564453,51.506675720214844 84.43218231201172,51.506675720214844 95.60163879394531,45.66078186035156 99.82020568847656,36.11865234375 99.82020568847656,20.489505767822266 " fill="#465059" id="svg_8"/>
   </g>
   <g stroke="null" id="svg_9">
    <path stroke="null" d="m99.8202,36.11865l0,10.73548c0,2.56944 -2.0833,4.65255 -4.65255,4.65255l-10.73548,0l15.38802,-15.38802z" fill="#FFCD38" id="svg_10"/>
    <path stroke="null" d="m99.8202,20.20032l0,0.28939l-31.01697,31.01697l-14.40368,0l35.9589,-35.9591l4.80921,0c2.56924,0 4.65255,2.0833 4.65255,4.65274z" fill="#FFCD38" id="svg_11"/>
    <polygon stroke="null" points="74.72930908203125,15.547575950622559 38.77021026611328,51.506675720214844 24.366718292236328,51.506675720214844 60.32562255859375,15.547575950622559 " fill="#FFCD38" id="svg_12"/>
    <path stroke="null" d="m44.69667,15.54758l-35.9591,35.9591l-3.90524,0c-2.56924,0 -4.65255,-2.0833 -4.65255,-4.65274l0,-1.19335l30.11301,-30.11301l14.40388,0z" fill="#FFCD38" id="svg_13"/>
    <path stroke="null" d="m14.66365,15.54758l-14.48386,14.48425l0,-9.83151c0,-2.56944 2.0833,-4.65255 4.65255,-4.65255l9.83132,0l0,-0.00019z" fill="#FFCD38" id="svg_14"/>
   </g>
   <g stroke="null" id="svg_15">
    <rect stroke="null" x="4.83311" y="51.5057" width="11.21772" height="6.05257" fill="#BAB8B9" id="svg_16"/>
    <rect stroke="null" x="83.94994" y="51.5057" width="11.21772" height="6.05257" fill="#BAB8B9" id="svg_17"/>
   </g>
   <g stroke="null" id="svg_18"/>
   <g stroke="null" id="svg_19"/>
   <g stroke="null" id="svg_20"/>
   <g stroke="null" id="svg_21"/>
   <g stroke="null" id="svg_22"/>
   <g stroke="null" id="svg_23"/>
   <g stroke="null" id="svg_24"/>
   <g stroke="null" id="svg_25"/>
   <g stroke="null" id="svg_26"/>
   <g stroke="null" id="svg_27"/>
   <g stroke="null" id="svg_28"/>
   <g stroke="null" id="svg_29"/>
   <g stroke="null" id="svg_30"/>
   <g stroke="null" id="svg_31"/>
   <g stroke="null" id="svg_32"/>
  </g>
 </g>
</svg>