<svg width="100" height="100" xmlns="http://www.w3.org/2000/svg" class="svg-inline--fa fa-images fa-w-18 fa-10x ">

 <g>
  <title>background</title>
  <rect fill="none" id="canvas_background" height="102" width="102" y="-1" x="-1"/>
 </g>
 <g>
  <title>Layer 1</title>
  <path stroke="null" id="svg_1" d="m83.284681,77.737232l0,2.773723c0,4.595713 -3.725457,8.32117 -8.32117,8.32117l-66.569359,0c-4.595713,0 -8.32117,-3.725457 -8.32117,-8.32117l0,-44.379573c0,-4.595713 3.725457,-8.32117 8.32117,-8.32117l2.773723,0l0,36.058403c0,7.647155 6.221461,13.868616 13.868616,13.868616l58.248189,0zm16.64234,-13.868616l0,-44.379573c0,-4.595713 -3.725457,-8.32117 -8.32117,-8.32117l-66.569359,0c-4.595713,0 -8.32117,3.725457 -8.32117,8.32117l0,44.379573c0,4.595713 3.725457,8.32117 8.32117,8.32117l66.569359,0c4.595713,0 8.32117,-3.725457 8.32117,-8.32117zm-55.474466,-36.058403c0,4.595713 -3.725457,8.32117 -8.32117,8.32117s-8.32117,-3.725457 -8.32117,-8.32117s3.725457,-8.32117 8.32117,-8.32117s8.32117,3.725457 8.32117,8.32117zm38.832126,61.021912l9.623953,-9.623953c0.812354,-0.812354 2.129526,-0.812354 2.942054,0l-48.624409,-29.208173l23.492569,-23.492569c0.812354,-0.812354 2.129526,-0.812354 2.942054,0l15.171226,15.1714l0,19.416063l-61.021912,0l0,-8.32117l55.474466,36.058403z" fill="currentColor"/>
 </g>
</svg>