<svg width="100" height="100" xmlns="http://www.w3.org/2000/svg" class="svg-inline--fa fa-image fa-w-16 fa-10x ">

 <g>
  <title>background</title>
  <rect fill="none" id="canvas_background" height="102" width="102" y="-1" x="-1"/>
 </g>
 <g>
  <title>Layer 1</title>
  <path stroke="null" id="svg_1" d="m90.530913,86.201301l-81.061826,0c-5.165743,0 -9.353288,-4.187545 -9.353288,-9.353288l0,-56.119726c0,-5.165743 4.187545,-9.353288 9.353288,-9.353288l81.061826,0c5.165743,0 9.353288,4.187545 9.353288,9.353288l0,56.119726c0,5.165743 -4.187545,9.353288 -9.353288,9.353288zm-68.590776,-63.914132c-6.026635,0 -10.912169,4.885534 -10.912169,10.912169s4.885534,10.912169 10.912169,10.912169s10.912169,-4.885534 10.912169,-10.912169s-4.885534,-10.912169 -10.912169,-10.912169zm-9.353288,51.443082l74.826301,0l0,-21.824338l-17.053187,-17.053187c-0.913115,-0.913115 -2.393662,-0.913115 -3.306972,0l-26.40628,26.406474l-10.817662,-10.817662c-0.913115,-0.913115 -2.393662,-0.913115 -3.306972,0l-13.935229,13.935424l0,9.353288z" fill="currentColor"/>
 </g>
</svg>