<svg width="100" height="100" xmlns="http://www.w3.org/2000/svg">
 <defs>
  <linearGradient y2="1" x2="0.5" y1="0" x1="0.5" id="SVGID_1_">
   <stop stop-color="#2AF598" offset="0"/>
   <stop stop-color="#009EFD" offset="1"/>
  </linearGradient>
 </defs>
 <g>
  <title>background</title>
  <rect fill="none" id="canvas_background" height="102" width="102" y="-1" x="-1"/>
 </g>
 <g>
  <title>Layer 1</title>
  <path stroke="null" id="svg_1" fill="url(#SVGID_1_)" d="m88.165187,7.940402l-4.673288,0l0,-7.788814l-7.788814,0l0,7.788814l-51.406173,0l0,-7.788814l-7.788814,0l0,7.788814l-4.673288,0c-6.442128,0 -11.683221,5.241093 -11.683221,11.683221l0,68.541564c0,6.442128 5.241093,11.683221 11.683221,11.683221l76.330378,0c6.442128,0 11.683221,-5.241093 11.683221,-11.683221l0,-68.541564c0,-6.442128 -5.241093,-11.683221 -11.683221,-11.683221zm-76.330378,7.788814l4.673288,0l0,7.788814l7.788814,0l0,-7.788814l51.406173,0l0,7.788814l7.788814,0l0,-7.788814l4.673288,0c2.147376,0 3.894407,1.747031 3.894407,3.894407l0,9.346577l-84.119192,0l0,-9.346577c0,-2.147376 1.747031,-3.894407 3.894407,-3.894407zm76.330378,76.330378l-76.330378,0c-2.147376,0 -3.894407,-1.747031 -3.894407,-3.894407l0,-51.406173l84.119192,0l0,51.406173c0,2.147376 -1.747031,3.894407 -3.894407,3.894407zm-73.214852,-47.122325l7.788814,0l0,7.788814l-7.788814,0l0,-7.788814zm15.577628,0l7.788814,0l0,7.788814l-7.788814,0l0,-7.788814zm15.577628,0l7.788814,0l0,7.788814l-7.788814,0l0,-7.788814zm15.577628,0l7.788814,0l0,7.788814l-7.788814,0l0,-7.788814zm15.577628,0l7.788814,0l0,7.788814l-7.788814,0l0,-7.788814zm-62.310512,15.577628l7.788814,0l0,7.788814l-7.788814,0l0,-7.788814zm15.577628,0l7.788814,0l0,7.788814l-7.788814,0l0,-7.788814zm15.577628,0l7.788814,0l0,7.788814l-7.788814,0l0,-7.788814zm15.577628,0l7.788814,0l0,7.788814l-7.788814,0l0,-7.788814zm-46.732884,15.577628l7.788814,0l0,7.788814l-7.788814,0l0,-7.788814zm15.577628,0l7.788814,0l0,7.788814l-7.788814,0l0,-7.788814zm15.577628,0l7.788814,0l0,7.788814l-7.788814,0l0,-7.788814zm15.577628,0l7.788814,0l0,7.788814l-7.788814,0l0,-7.788814zm15.577628,-15.577628l7.788814,0l0,7.788814l-7.788814,0l0,-7.788814z"/>
  <g id="svg_2"/>
  <g id="svg_3"/>
  <g id="svg_4"/>
  <g id="svg_5"/>
  <g id="svg_6"/>
  <g id="svg_7"/>
  <g id="svg_8"/>
  <g id="svg_9"/>
  <g id="svg_10"/>
  <g id="svg_11"/>
  <g id="svg_12"/>
  <g id="svg_13"/>
  <g id="svg_14"/>
  <g id="svg_15"/>
  <g id="svg_16"/>
 </g>
</svg>