<svg width="100" height="100" xmlns="http://www.w3.org/2000/svg">
 <g>
  <title>background</title>
  <rect x="-1" y="-1" width="102" height="102" id="canvas_background" fill="none"/>
 </g>

 <g>
  <title>Layer 1</title>
  <g stroke="null" id="svg_61">
   <g stroke="null" id="svg_1">
    <g stroke="null" id="svg_2">
     <path stroke="null" d="m88.19757,7.90472l-4.67725,0l0,-7.79542l-7.79542,0l0,7.79542l-51.44979,0l0,-7.79542l-7.79542,0l0,7.79542l-4.67725,0c-6.44759,0 -11.69313,5.24554 -11.69313,11.69313l0,68.59972c0,6.44759 5.24554,11.69313 11.69313,11.69313l76.39514,0c6.44759,0 11.69313,-5.24554 11.69313,-11.69313l0,-68.59972c0,-6.44759 -5.24554,-11.69313 -11.69313,-11.69313zm3.89771,80.29285c0,2.1492 -1.74851,3.89771 -3.89771,3.89771l-76.39514,0c-2.1492,0 -3.89771,-1.74851 -3.89771,-3.89771l0,-51.44979l84.19056,0l0,51.44979zm0,-59.24521l-84.19056,0l0,-9.35451c0,-2.1492 1.74851,-3.89771 3.89771,-3.89771l4.67725,0l0,7.79542l7.79542,0l0,-7.79542l51.44979,0l0,7.79542l7.79542,0l0,-7.79542l4.67725,0c2.1492,0 3.89771,1.74851 3.89771,3.89771l0,9.35451z" id="svg_3"/>
    </g>
   </g>
   <g stroke="null" id="svg_4">
    <g stroke="null" id="svg_5">
     <rect stroke="null" x="14.9206" y="44.93298" width="7.79542" height="7.79542" id="svg_6"/>
    </g>
   </g>
   <g stroke="null" id="svg_7">
    <g stroke="null" id="svg_8">
     <rect stroke="null" x="30.51145" y="44.93298" width="7.79542" height="7.79542" id="svg_9"/>
    </g>
   </g>
   <g stroke="null" id="svg_10">
    <g stroke="null" id="svg_11">
     <rect stroke="null" x="46.10229" y="44.93298" width="7.79542" height="7.79542" id="svg_12"/>
    </g>
   </g>
   <g stroke="null" id="svg_13">
    <g stroke="null" id="svg_14">
     <rect stroke="null" x="61.69313" y="44.93298" width="7.79542" height="7.79542" id="svg_15"/>
    </g>
   </g>
   <g stroke="null" id="svg_16">
    <g stroke="null" id="svg_17">
     <rect stroke="null" x="77.28398" y="44.93298" width="7.79542" height="7.79542" id="svg_18"/>
    </g>
   </g>
   <g stroke="null" id="svg_19">
    <g stroke="null" id="svg_20">
     <rect stroke="null" x="14.9206" y="60.52382" width="7.79542" height="7.79542" id="svg_21"/>
    </g>
   </g>
   <g stroke="null" id="svg_22">
    <g stroke="null" id="svg_23">
     <rect stroke="null" x="30.51145" y="60.52382" width="7.79542" height="7.79542" id="svg_24"/>
    </g>
   </g>
   <g stroke="null" id="svg_25">
    <g stroke="null" id="svg_26">
     <rect stroke="null" x="46.10229" y="60.52382" width="7.79542" height="7.79542" id="svg_27"/>
    </g>
   </g>
   <g stroke="null" id="svg_28">
    <g stroke="null" id="svg_29">
     <rect stroke="null" x="61.69313" y="60.52382" width="7.79542" height="7.79542" id="svg_30"/>
    </g>
   </g>
   <g stroke="null" id="svg_31">
    <g stroke="null" id="svg_32">
     <rect stroke="null" x="14.9206" y="76.11467" width="7.79542" height="7.79542" id="svg_33"/>
    </g>
   </g>
   <g stroke="null" id="svg_34">
    <g stroke="null" id="svg_35">
     <rect stroke="null" x="30.51145" y="76.11467" width="7.79542" height="7.79542" id="svg_36"/>
    </g>
   </g>
   <g stroke="null" id="svg_37">
    <g stroke="null" id="svg_38">
     <rect stroke="null" x="46.10229" y="76.11467" width="7.79542" height="7.79542" id="svg_39"/>
    </g>
   </g>
   <g stroke="null" id="svg_40">
    <g stroke="null" id="svg_41">
     <rect stroke="null" x="61.69313" y="76.11467" width="7.79542" height="7.79542" id="svg_42"/>
    </g>
   </g>
   <g stroke="null" id="svg_43">
    <g stroke="null" id="svg_44">
     <rect stroke="null" x="77.28398" y="60.52382" width="7.79542" height="7.79542" id="svg_45"/>
    </g>
   </g>
   <g stroke="null" id="svg_46"/>
   <g stroke="null" id="svg_47"/>
   <g stroke="null" id="svg_48"/>
   <g stroke="null" id="svg_49"/>
   <g stroke="null" id="svg_50"/>
   <g stroke="null" id="svg_51"/>
   <g stroke="null" id="svg_52"/>
   <g stroke="null" id="svg_53"/>
   <g stroke="null" id="svg_54"/>
   <g stroke="null" id="svg_55"/>
   <g stroke="null" id="svg_56"/>
   <g stroke="null" id="svg_57"/>
   <g stroke="null" id="svg_58"/>
   <g stroke="null" id="svg_59"/>
   <g stroke="null" id="svg_60"/>
  </g>
 </g>
</svg>