<svg width="100" height="100" xmlns="http://www.w3.org/2000/svg" class="svg-inline--fa fa-times-circle fa-w-16 fa-2x ">

 <g>
  <title>background</title>
  <rect fill="none" id="canvas_background" height="102" width="102" y="-1" x="-1"/>
 </g>
 <g>
  <title>Layer 1</title>
  <path stroke="null" id="svg_1" d="m50,0.20744c-27.50637,0 -49.79256,22.28619 -49.79256,49.79256s22.28619,49.79256 49.79256,49.79256s49.79256,-22.28619 49.79256,-49.79256s-22.28619,-49.79256 -49.79256,-49.79256zm24.41442,62.86311c0.94365,0.94365 0.94365,2.46955 0,3.4132l-7.95075,7.93067c-0.94365,0.94365 -2.46955,0.94365 -3.4132,0l-13.05047,-13.17094l-13.07055,13.17094c-0.94365,0.94365 -2.46955,0.94365 -3.4132,0l-7.93067,-7.95075c-0.94365,-0.94365 -0.94365,-2.46955 0,-3.4132l13.17094,-13.05047l-13.17094,-13.07055c-0.94365,-0.94365 -0.94365,-2.46955 0,-3.4132l7.95075,-7.95075c0.94365,-0.94365 2.46955,-0.94365 3.4132,0l13.05047,13.19101l13.07055,-13.17094c0.94365,-0.94365 2.46955,-0.94365 3.4132,0l7.95075,7.95075c0.94365,0.94365 0.94365,2.46955 0,3.4132l-13.19101,13.05047l13.17094,13.07055z" fill="currentColor"/>
 </g>
</svg>