<svg width="100.00000000000001" height="100.00000000000001" xmlns="http://www.w3.org/2000/svg">
 <g>
  <title>background</title>
  <rect x="-1" y="-1" width="102" height="102" id="canvas_background" fill="none"/>
 </g>

 <g>
  <title>Layer 1</title>
  <g stroke="null" id="svg_5">
   <path stroke="null" d="m73.40572,23.47352l0,50.12725c0,3.29067 -1.09257,6.33067 -2.93333,8.77714l29.45981,0l0,-58.90439l-26.52648,0zm0,0" fill="#484848" id="svg_1"/>
   <path stroke="null" d="m0.0678,0.0678l11.70286,0l0,99.8644l-11.70286,0l0,-99.8644zm0,0" fill="#484848" id="svg_2"/>
   <path stroke="null" d="m58.77714,64.82362l-8.77714,0l0,8.77714c0,4.82743 3.94971,8.77714 8.77714,8.77714s8.77714,-3.94971 8.77714,-8.77714s-3.94971,-8.77714 -8.77714,-8.77714zm0,0" fill="#484848" id="svg_3"/>
   <path stroke="null" d="m58.77714,5.91923l-41.15505,0l0,3.06514c11.69981,13.67162 11.69981,33.25105 0,46.92268l0,3.06514l41.15505,0c3.29067,0 6.33067,1.09257 8.77714,2.93333l0,-47.20915c0,-4.82743 -3.94971,-8.77714 -8.77714,-8.77714zm0,0" fill="#484848" id="svg_4"/>
  </g>
 </g>
</svg>