<svg width="100" height="100" xmlns="http://www.w3.org/2000/svg" preserveAspectRatio="xMidYMid">

 <g>
  <title>background</title>
  <rect fill="none" id="canvas_background" height="102" width="102" y="-1" x="-1"/>
 </g>
 <g>
  <title>Layer 1</title>
  <g stroke="null" id="svg_1">
   <path stroke="null" id="svg_2" fill="#5C8DBC" d="m99.99277,26.84837c-0.00078,-1.88972 -0.40494,-3.55957 -1.22226,-4.9927c-0.80284,-1.40927 -2.00514,-2.59045 -3.61786,-3.52435c-13.31218,-7.67588 -26.63727,-15.32828 -39.94515,-23.01198c-3.58774,-2.07126 -7.06631,-1.99575 -10.62744,0.10525c-5.29866,3.12489 -31.82716,18.32366 -39.73231,22.90243c-3.25557,1.88464 -4.83973,4.76891 -4.84051,8.51784c-0.00509,15.43665 0,30.87291 -0.00509,46.30996c0.00078,1.84825 0.38773,3.48562 1.16905,4.89724c0.80323,1.45192 2.02236,2.66557 3.67224,3.6206c7.90554,4.57876 34.43756,19.77636 39.73505,22.90204c3.5627,2.10217 7.04127,2.17729 10.63018,0.10525c13.30827,-7.68409 26.63414,-15.3361 39.94828,-23.01198c1.64989,-0.95464 2.86901,-2.16907 3.67224,-3.61982c0.78015,-1.41162 1.16787,-3.04899 1.16865,-4.89763c0,0 0,-30.86509 -0.00509,-46.30213"/>
   <path stroke="null" id="svg_3" fill="#1A4674" d="m50.15298,49.8494l-48.98178,28.20265c0.80323,1.45192 2.02236,2.66557 3.67224,3.6206c7.90554,4.57876 34.43756,19.77636 39.73505,22.90204c3.5627,2.10217 7.04127,2.17729 10.63018,0.10525c13.30827,-7.68409 26.63414,-15.3361 39.94828,-23.01198c1.64989,-0.95464 2.86901,-2.16907 3.67224,-3.61982l-48.67622,-28.19874"/>
   <path stroke="null" id="svg_4" fill="#1A4674" d="m35.64515,58.2033c2.85023,4.97588 8.20836,8.332 14.35485,8.332c6.18444,0 11.57309,-3.39876 14.40885,-8.42785l-14.25587,-8.25805l-14.50783,8.35391"/>
   <path stroke="null" id="svg_5" fill="#1B598E" d="m99.99277,26.84837c-0.00078,-1.88972 -0.40494,-3.55957 -1.22226,-4.9927l-48.61753,27.99373l48.67622,28.19874c0.78015,-1.41162 1.16787,-3.04899 1.16865,-4.89763c0,0 0,-30.86509 -0.00509,-46.30213"/>
   <path stroke="null" id="svg_6" fill="#FFFFFF" d="m97.31624,51.8651l-3.8037,0l0,3.80449l-3.80449,0l0,-3.80449l-3.80331,0l0,-3.80331l3.80331,0l0,-3.8037l3.80449,0l0,3.8037l3.8037,0l0,3.80331"/>
   <path stroke="null" id="svg_7" fill="#FFFFFF" d="m83.43676,51.8651l-3.80331,0l0,3.80449l-3.8037,0l0,-3.80449l-3.8037,0l0,-3.80331l3.8037,0l0,-3.8037l3.8037,0l0,3.8037l3.80331,0l0,3.80331"/>
   <path stroke="null" id="svg_8" fill="#FFFFFF" d="m64.40885,58.10745c-2.83576,5.02909 -8.2244,8.42785 -14.40885,8.42785c-6.14649,0 -11.50462,-3.35612 -14.35485,-8.332c-1.38462,-2.41791 -2.18081,-5.21728 -2.18081,-8.20367c0,-9.1321 7.40357,-16.53527 16.53566,-16.53527c6.10697,0 11.43693,3.31425 14.30125,8.23927l14.45306,-8.32261c-5.74468,-9.91655 -16.46994,-16.58809 -28.75431,-16.58809c-18.3401,0 -33.20709,14.86739 -33.20709,33.2067c0,6.0166 1.60059,11.65877 4.39801,16.52549c5.7302,9.96897 16.48598,16.6816 28.80908,16.6816c12.3458,0 23.1184,-6.73962 28.84038,-16.73794l-14.43154,-8.36134"/>
  </g>
 </g>
</svg>