<svg width="100" height="100" xmlns="http://www.w3.org/2000/svg" preserveAspectRatio="xMidYMid">

 <g>
  <title>background</title>
  <rect fill="none" id="canvas_background" height="102" width="102" y="-1" x="-1"/>
 </g>
 <g>
  <title>Layer 1</title>
  <g stroke="null" id="svg_1">
   <path stroke="null" id="svg_2" fill="#264DE4" d="m49.95718,99.37962l-28.57344,-7.93218l-6.36746,-71.41855l69.96745,0l-6.37421,71.40737l-28.65233,7.94337l0,0z"/>
   <path stroke="null" id="svg_3" fill="#2965F1" d="m73.15248,86.88927l5.44719,-61.02086l-28.59967,0l0,67.43963l23.15248,-6.41877l0,0z"/>
   <path stroke="null" id="svg_4" fill="#EBEBEB" d="m29.61355,52.35652l0.78506,8.75909l19.60139,0l0,-8.75909l-20.38645,0l0,0z"/>
   <path stroke="null" id="svg_5" fill="#EBEBEB" d="m28.0361,34.6277l0.79625,8.75929l21.16765,0l0,-8.75929l-21.9639,0l0,0z"/>
   <path stroke="null" id="svg_6" fill="#EBEBEB" d="m50,75.1051l-0.03839,0.01022l-9.75517,-2.63409l-0.62361,-6.98587l-8.79285,0l1.22716,13.75319l17.94255,4.98098l0.04031,-0.01119l0,-9.11324l0,0z"/>
   <path stroke="null" id="svg_7" fill="#fff" d="m31.48264,0.62038l10.6089,0l0,4.43645l-6.17245,0l0,4.43645l6.17245,0l0,4.43645l-10.6089,0l0,-13.30935l0,0z"/>
   <path stroke="null" id="svg_8" fill="#fff" d="m44.21333,0.62038l10.6089,0l0,3.85778l-6.17245,0l0,0.77156l6.17245,0l0,8.8729l-10.6089,0l0,-4.05067l6.17245,0l0,-0.77156l-6.17245,0l0,-8.68001l0,0z"/>
   <path stroke="null" id="svg_9" fill="#fff" d="m56.94401,0.62038l10.6089,0l0,3.85778l-6.17245,0l0,0.77156l6.17245,0l0,8.8729l-10.6089,0l0,-4.05067l6.17245,0l0,-0.77156l-6.17245,0l0,-8.68001l0,0z"/>
   <path stroke="null" id="svg_10" fill="#FFFFFF" d="m70.33032,52.35652l1.58131,-17.72882l-21.94191,0l0,8.75929l12.34259,0l-0.79702,8.96954l-11.54557,0l0,8.75909l10.78598,0l-1.01672,11.36001l-9.76926,2.6368l0,9.11285l17.95682,-4.97673l0.13174,-1.47984l2.05832,-23.06009l0.21372,-2.35209l0,0z"/>
  </g>
 </g>
</svg>