<svg width="100" height="100" xmlns="http://www.w3.org/2000/svg" preserveAspectRatio="xMidYMid">

 <g>
  <title>background</title>
  <rect fill="none" id="canvas_background" height="102" width="102" y="-1" x="-1"/>
 </g>
 <g>
  <title>Layer 1</title>
  <path stroke="null" id="svg_1" d="m50.00039,1.73371c-27.32818,0 -49.48835,22.1563 -49.48835,49.48835c0,21.86517 14.17985,40.41581 33.84319,46.95943c2.47324,0.45815 3.38142,-1.07366 3.38142,-2.38083c0,-1.17998 -0.04639,-5.07832 -0.06727,-9.21327c-13.76771,2.99325 -16.6728,-5.83919 -16.6728,-5.83919c-2.25132,-5.72011 -5.4951,-7.24148 -5.4951,-7.24148c-4.48987,-3.07135 0.33868,-3.00794 0.33868,-3.00794c4.96929,0.34874 7.58596,5.09958 7.58596,5.09958c4.41409,7.56547 11.57748,5.37834 14.40138,4.11369c0.44423,-3.19816 1.72667,-5.38182 3.1421,-6.61747c-10.99213,-1.25112 -22.54718,-5.49471 -22.54718,-24.4571c0,-5.40308 1.93312,-9.81795 5.09881,-13.28365c-0.51382,-1.24648 -2.20763,-6.27956 0.47941,-13.09652c0,0 4.15583,-1.32999 13.61306,5.0729c3.94744,-1.09647 8.18098,-1.64625 12.38668,-1.66519c4.2057,0.01894 8.44272,0.56834 12.39751,1.66519c9.44563,-6.4025 13.59566,-5.07252 13.59566,-5.07252c2.69361,6.81619 0.99904,11.85005 0.48521,13.09614c3.17303,3.4657 5.09301,7.88057 5.09301,13.28365c0,19.00763 -11.57709,23.19284 -22.59705,24.41806c1.77499,1.53567 3.35668,4.54748 3.35668,9.16455c0,6.62133 -0.05722,11.95057 -0.05722,13.58058c0,1.31723 0.89078,2.86025 3.3992,2.37388c19.65252,-6.55058 33.81458,-25.09426 33.81458,-46.95209c0,-27.33243 -22.15707,-49.48873 -49.48757,-49.48873zm-30.95317,70.49715c-0.10903,0.24589 -0.49604,0.31974 -0.84825,0.15078c-0.35917,-0.16122 -0.56061,-0.49643 -0.44462,-0.74309c0.10671,-0.25324 0.49449,-0.32399 0.85251,-0.15426c0.35956,0.16161 0.56447,0.49991 0.44037,0.74657zm2.43419,2.17206c-0.23584,0.21883 -0.69747,0.11715 -1.01064,-0.2285c-0.3236,-0.34487 -0.3843,-0.8065 -0.14498,-1.02842c0.24357,-0.21883 0.6909,-0.11637 1.01528,0.2285c0.32399,0.34912 0.38662,0.80727 0.14034,1.02842zm1.67022,2.77906c-0.3035,0.21071 -0.79915,0.01315 -1.10575,-0.42683c-0.30311,-0.43998 -0.30311,-0.96772 0.00657,-1.17921c0.30737,-0.21148 0.79567,-0.02126 1.10613,0.41562c0.30234,0.44732 0.30234,0.97507 -0.00735,1.1908l0.00039,-0.00039zm2.82391,3.21865c-0.27102,0.29925 -0.84903,0.21883 -1.272,-0.18945c-0.43263,-0.399 -0.55287,-0.96502 -0.28069,-1.26426c0.2745,-0.30002 0.8556,-0.21574 1.28166,0.18945c0.42915,0.39822 0.56061,0.96849 0.27102,1.26426zm3.65051,1.08642c-0.11985,0.38778 -0.67659,0.56409 -1.23681,0.39938c-0.55983,-0.16973 -0.92597,-0.62363 -0.81307,-1.01528c0.11637,-0.39049 0.67543,-0.57375 1.23991,-0.39745c0.55906,0.16857 0.92635,0.61937 0.80998,1.01373l0,-0.00039zm4.1539,0.46124c0.01392,0.40789 -0.46124,0.74619 -1.04969,0.75392c-0.59154,0.01315 -1.07056,-0.31703 -1.07714,-0.71912c0,-0.41176 0.46472,-0.74696 1.05665,-0.75701c0.58844,-0.0116 1.07018,0.31626 1.07018,0.72221zm4.08082,-0.15658c0.07037,0.39822 -0.3383,0.80727 -0.92287,0.9163c-0.57414,0.10478 -1.10613,-0.14112 -1.17921,-0.53586c-0.07114,-0.40828 0.34526,-0.81732 0.91862,-0.92287c0.58535,-0.10168 1.10884,0.13764 1.18346,0.54243z" fill="#161614"/>
 </g>
</svg>