<svg width="100" height="100" xmlns="http://www.w3.org/2000/svg" preserveAspectRatio="xMidYMid">

 <g>
  <title>background</title>
  <rect fill="none" id="canvas_background" height="102" width="102" y="-1" x="-1"/>
 </g>
 <g>
  <title>Layer 1</title>
  <g stroke="null" id="svg_1">
   <path stroke="null" id="svg_2" fill="#5382A1" d="m36.94464,77.19376c0,0 -3.80161,2.21077 2.70548,2.95887c7.88315,0.89932 11.91214,0.77035 20.59943,-0.87385c0,0 2.28397,1.43211 5.4737,2.6725c-19.47461,8.34649 -44.07487,-0.48344 -28.77861,-4.75751"/>
   <path stroke="null" id="svg_3" fill="#5382A1" d="m34.56494,66.30214c0,0 -4.26388,3.15621 2.24804,3.82976c8.42103,0.86876 15.0713,0.93981 26.57883,-1.27605c0,0 1.59164,1.61363 4.09441,2.49606c-23.54596,6.88516 -49.77193,0.54297 -32.92128,-5.04978"/>
   <path stroke="null" id="svg_4" fill="#E76F00" d="m54.6265,47.82633c4.79853,5.52465 -1.26077,10.49613 -1.26077,10.49613c0,0 12.1843,-6.2899 6.5886,-14.16635c-5.22621,-7.34527 -9.23401,-10.99486 12.46262,-23.57814c0,0 -34.05656,8.50576 -17.79045,27.24836"/>
   <path stroke="null" id="svg_5" fill="#5382A1" d="m80.38322,85.24986c0,0 2.81327,2.31802 -3.09829,4.11131c-11.241,3.40531 -46.78625,4.4336 -56.66057,0.13568c-3.54957,-1.54419 3.10687,-3.68712 5.20074,-4.13678c2.18369,-0.47353 3.43158,-0.38531 3.43158,-0.38531c-3.94747,-2.78082 -25.51487,5.46029 -10.95517,7.82041c39.70643,6.43925 72.38103,-2.89961 62.08171,-7.5453"/>
   <path stroke="null" id="svg_6" fill="#5382A1" d="m38.77278,55.01716c0,0 -18.08058,4.29444 -6.40278,5.85391c4.93073,0.66015 14.76,0.5108 23.91572,-0.25634c7.48256,-0.63119 14.99596,-1.9732 14.99596,-1.9732c0,0 -2.63844,1.12992 -4.54729,2.43332c-18.36051,4.82884 -53.82961,2.5824 -43.61851,-2.3569c8.63554,-4.17432 15.65691,-3.70079 15.65691,-3.70079"/>
   <path stroke="null" id="svg_7" fill="#5382A1" d="m71.20713,73.1468c18.66431,-9.69869 10.03467,-19.01905 4.01129,-17.76337c-1.47635,0.30728 -2.13462,0.57354 -2.13462,0.57354c0,0 0.54807,-0.85857 1.59486,-1.2302c11.91616,-4.18933 21.08046,12.3559 -3.84666,18.90884c0,0.00027 0.28878,-0.25794 0.37512,-0.48881"/>
   <path stroke="null" id="svg_8" fill="#E76F00" d="m59.95433,0.25927c0,0 10.33659,10.34007 -9.8038,26.24018c-16.15054,12.75462 -3.68283,20.02696 -0.0067,28.33592c-9.42734,-8.50576 -16.34575,-15.99342 -11.70434,-22.96223c6.81249,-10.2296 25.68541,-15.18928 21.51484,-31.61386"/>
   <path stroke="null" id="svg_9" fill="#5382A1" d="m40.60682,99.42801c17.91541,1.14681 45.42654,-0.63628 46.07811,-9.11336c0,0 -1.25246,3.21359 -14.80612,5.7657c-15.29117,2.87762 -34.15068,2.54164 -45.33645,0.69742c0.00027,-0.00027 2.28987,1.89518 14.06446,2.65024"/>
  </g>
 </g>
</svg>