<svg width="99.99999999999999" height="99.99999999999999" xmlns="http://www.w3.org/2000/svg" preserveAspectRatio="xMidYMid">

 <g>
  <title>background</title>
  <rect fill="none" id="canvas_background" height="102" width="102" y="-1" x="-1"/>
 </g>
 <g>
  <title>Layer 1</title>
  <g stroke="null" id="svg_1">
   <path stroke="null" id="svg_2" fill="#F7DF1E" d="m0,0l99.93257,0l0,99.93257l-99.93257,0l0,-99.93257z"/>
   <path stroke="null" id="svg_3" fill="#000000" d="m26.27592,83.51095l7.64754,-4.62815c1.47536,2.61586 2.81747,4.82912 6.03672,4.82912c3.08585,0 5.03137,-1.20712 5.03137,-5.90237l0,-31.93083l9.39112,0l0,32.0636c0,9.72677 -5.70155,14.1541 -14.0199,14.1541c-7.51255,0 -11.87342,-3.89087 -14.087,-8.58627"/>
   <path stroke="null" id="svg_4" fill="#000000" d="m59.48367,82.50465l7.64659,-4.42733c2.01293,3.28731 4.6291,5.70202 9.25741,5.70202c3.89118,0 6.37252,-1.94551 6.37252,-4.62878c0,-3.21989 -2.54891,-4.36039 -6.84221,-6.23801l-2.34715,-1.00694c-6.77559,-2.88393 -11.27017,-6.50624 -11.27017,-14.15362c0,-7.0435 5.36638,-12.4102 13.75183,-12.4102c5.97026,0 10.26339,2.07971 13.34877,7.51334l-7.31189,4.69541c-1.61002,-2.88425 -3.35361,-4.02443 -6.03672,-4.02443c-2.75037,0 -4.49459,1.74406 -4.49459,4.02443c0,2.81746 1.74422,3.95812 5.76865,5.70234l2.34762,1.00615c7.98271,3.42134 12.4773,6.90915 12.4773,14.75735c0,8.45271 -6.64091,13.08086 -15.56252,13.08086c-8.72046,0 -14.35539,-4.15878 -17.10528,-9.59258"/>
  </g>
 </g>
</svg>