<svg width="100" height="100" xmlns="http://www.w3.org/2000/svg">
 <g>
  <title>background</title>
  <rect x="-1" y="-1" width="19.9533" height="19.9533" id="canvas_background" fill="none"/>
 </g>

 <g>
  <title>Layer 1</title>
  <g stroke="null" id="svg_6">
   <path stroke="null" d="m94.91606,33.28125c0,51.1544 -44.91606,66.62549 -44.91606,66.62549s-44.91606,-15.47109 -44.91606,-66.62549c0,-6.23834 0.49907,-11.47855 0.99813,-15.72062c0.7486,-6.23834 4.99067,-11.22901 10.97948,-12.72622c7.73554,-2.2458 19.96269,-4.74114 32.93844,-4.74114s25.2029,2.49534 33.18798,4.74114c5.98881,1.4972 10.23088,6.73741 10.97948,12.72622c0.24953,4.24207 0.7486,9.73181 0.7486,15.72062z" fill="#5D4037" id="svg_1"/>
   <path stroke="null" d="m50,7.57928c12.22715,0 23.7057,2.49534 31.19171,4.49161c2.9944,0.7486 4.99067,3.24394 5.48974,6.48788c0.49907,4.74114 0.7486,9.73181 0.7486,14.72249c0,38.92725 -28.69637,54.64787 -37.43005,58.39088c-8.73368,-3.99254 -37.43005,-19.71316 -37.43005,-58.39088c0,-4.99067 0.24953,-9.98135 0.7486,-14.72249c0.24953,-3.24394 2.49534,-5.73927 5.48974,-6.48788c7.48601,-1.99627 18.96456,-4.49161 31.19171,-4.49161m0,-7.48601c-12.97575,0 -25.2029,2.49534 -33.18798,4.74114c-5.73927,1.4972 -10.23088,6.73741 -10.72995,12.72622c-0.49907,4.24207 -0.99813,9.73181 -0.99813,15.72062c0,51.1544 44.91606,66.62549 44.91606,66.62549s44.91606,-15.47109 44.91606,-66.62549c0,-6.23834 -0.49907,-11.47855 -0.99813,-15.72062c-0.7486,-6.23834 -4.99067,-11.22901 -10.97948,-12.72622c-7.73554,-2.2458 -19.96269,-4.74114 -32.93844,-4.74114l0,0z" fill="#4CAF50" id="svg_2"/>
   <rect stroke="null" x="47.50466" y="59.98135" width="4.99067" height="19.96269" fill="#DCEDC8" id="svg_3"/>
   <path stroke="null" d="m50,15.06529c0,0 -14.97202,12.47668 -14.97202,32.43938c0,12.97575 8.23461,21.21036 12.47668,24.95337l2.49534,-7.48601l2.49534,7.48601c4.24207,-3.743 12.47668,-11.97762 12.47668,-24.95337c0,-19.96269 -14.97202,-32.43938 -14.97202,-32.43938z" fill="#4CAF50" id="svg_4"/>
   <path stroke="null" d="m50,15.06529c0,0 -14.97202,12.47668 -14.97202,32.43938c0,12.97575 8.23461,21.21036 12.47668,24.95337l2.49534,-7.48601l0,-49.90673z" fill="#81C784" id="svg_5"/>
  </g>
 </g>
</svg>