<svg width="100" height="100" xmlns="http://www.w3.org/2000/svg" preserveAspectRatio="xMidYMid">

 <g>
  <title>background</title>
  <rect fill="none" id="canvas_background" height="102" width="102" y="-1" x="-1"/>
 </g>
 <g>
  <title>Layer 1</title>
  <g stroke="null" id="svg_1">
   <path stroke="null" id="svg_2" fill="#539E43" d="m50,99.91928c-1.37582,0 -2.65992,-0.36688 -3.85229,-1.00893l-12.19892,-7.24598c-1.83443,-1.00894 -0.91721,-1.37582 -0.36688,-1.55926c2.47647,-0.82549 2.93508,-1.00893 5.50327,-2.47647c0.27516,-0.18344 0.64205,-0.09172 0.91721,0.09172l9.35557,5.59499c0.36688,0.18345 0.82549,0.18345 1.10065,0l36.59677,-21.1876c0.36688,-0.18344 0.55033,-0.55033 0.55033,-1.00893l0,-42.28348c0,-0.45861 -0.18345,-0.82549 -0.55033,-1.00894l-36.59677,-21.09588c-0.36688,-0.18344 -0.82549,-0.18344 -1.10065,0l-36.59677,21.09588c-0.36688,0.18344 -0.55033,0.64205 -0.55033,1.00894l0,42.28348c0,0.36688 0.18345,0.82549 0.55033,1.00893l9.99761,5.77844c5.41156,2.75164 8.80524,-0.45861 8.80524,-3.66885l0,-41.73316c0,-0.55033 0.45861,-1.10065 1.10065,-1.10065l4.67778,0c0.55033,0 1.10065,0.45861 1.10065,1.10065l0,41.73316c0,7.24598 -3.94401,11.46515 -10.8231,11.46515c-2.10959,0 -3.76057,0 -8.43835,-2.29303l-9.63073,-5.50327c-2.38475,-1.37582 -3.85229,-3.94401 -3.85229,-6.69565l0,-42.28348c0,-2.75164 1.46754,-5.31983 3.85229,-6.69565l36.59677,-21.1876c2.29303,-1.2841 5.41156,-1.2841 7.70459,0l36.59676,21.1876c2.38475,1.37582 3.85229,3.94401 3.85229,6.69565l0,42.28348c0,2.75164 -1.46754,5.31983 -3.85229,6.69565l-36.59676,21.1876c-1.19238,0.55033 -2.56819,0.82549 -3.85229,0.82549l0,0zm11.28171,-29.07563c-16.05121,0 -19.35318,-7.3377 -19.35318,-13.57474c0,-0.55033 0.45861,-1.10066 1.10065,-1.10066l4.7695,0c0.55033,0 1.00893,0.36688 1.00893,0.91721c0.73377,4.86122 2.84336,7.24597 12.56581,7.24597c7.70458,0 11.00655,-1.7427 11.00655,-5.87016c0,-2.38475 -0.91721,-4.12746 -12.9327,-5.31983c-9.99761,-1.00894 -16.23466,-3.21024 -16.23466,-11.18999c0,-7.42942 6.23705,-11.83204 16.69326,-11.83204c11.74031,0 17.51875,4.03574 18.25252,12.84097c0,0.27516 -0.09172,0.55033 -0.27516,0.82549c-0.18344,0.18344 -0.45861,0.36688 -0.73377,0.36688l-4.7695,0c-0.45861,0 -0.91721,-0.36688 -1.00894,-0.82549c-1.10065,-5.04467 -3.94401,-6.69565 -11.46515,-6.69565c-8.43836,0 -9.44729,2.93508 -9.44729,5.13639c0,2.65992 1.19238,3.48541 12.56581,4.95295c11.28171,1.46754 16.60154,3.57713 16.60154,11.46515c-0.09172,8.07147 -6.69565,12.65753 -18.34424,12.65753l0,0z"/>
  </g>
 </g>
</svg>