<svg width="100" height="100" xmlns="http://www.w3.org/2000/svg" preserveAspectRatio="xMidYMid">

 <g>
  <title>background</title>
  <rect fill="none" id="canvas_background" height="102" width="102" y="-1" x="-1"/>
 </g>
 <g>
  <title>Layer 1</title>
  <g stroke="null" id="svg_1">
   <path stroke="null" id="svg_2" fill="#00D8FF" d="m82.12794,34.39631c-1.03441,-0.35605 -2.10627,-0.69292 -3.2099,-1.01151c0.18139,-0.74031 0.34788,-1.47104 0.49591,-2.18934c2.42983,-11.79472 0.84112,-21.29663 -4.58385,-24.42507c-5.20187,-2.99975 -13.70913,0.12797 -22.30105,7.60526c-0.82622,0.71901 -1.65474,1.48026 -2.4829,2.27808c-0.55182,-0.52786 -1.10274,-1.03796 -1.65225,-1.52588c-9.00458,-7.9952 -18.03029,-11.36449 -23.44994,-8.227c-5.1969,3.00845 -6.73591,11.94115 -4.54871,23.11909c0.21121,1.07967 0.4581,2.18223 0.73729,3.30326c-1.2774,0.36261 -2.51059,0.74918 -3.69054,1.16043c-10.55691,3.68061 -17.29903,9.44902 -17.29903,15.43238c0,6.17966 7.23768,12.37795 18.23351,16.13629c0.86775,0.29659 1.76815,0.57702 2.69607,0.84325c-0.3012,1.21243 -0.56317,2.40055 -0.78309,3.55938c-2.0855,10.98395 -0.45686,19.70561 4.7262,22.69507c5.35362,3.08726 14.3385,-0.08608 23.0875,-7.73376c0.6915,-0.60453 1.38549,-1.24562 2.08071,-1.9176c0.90112,0.86775 1.80081,1.68899 2.69572,2.4593c8.47442,7.29252 16.8443,10.23725 22.02256,7.23945c5.3483,-3.09613 7.08646,-12.46528 4.82985,-23.86438c-0.17234,-0.87059 -0.3729,-1.75999 -0.59814,-2.66519c0.63098,-0.18654 1.25041,-0.37912 1.85441,-0.57933c11.43122,-3.78745 18.86875,-9.91032 18.86875,-16.1725c0,-6.00501 -6.95955,-11.8123 -17.72909,-15.5197l0,0zm-2.47936,27.64881c-0.54525,0.18051 -1.1047,0.35498 -1.67479,0.52413c-1.26195,-3.99512 -2.96514,-8.24333 -5.0494,-12.63247c1.98895,-4.2846 3.62629,-8.4785 4.85292,-12.44771c1.02003,0.29517 2.01007,0.60648 2.96408,0.93502c9.22733,3.17653 14.85588,7.87309 14.85588,11.49192c0,3.85472 -6.07867,8.85869 -15.94869,12.12911l0,0zm-4.0954,8.11518c0.99785,5.04053 1.14037,9.59775 0.4794,13.16033c-0.59388,3.2012 -1.78821,5.33552 -3.26492,6.19031c-3.14246,1.81891 -9.86257,-0.54543 -17.11001,-6.78206c-0.83083,-0.71493 -1.66769,-1.47831 -2.50722,-2.28624c2.80966,-3.07288 5.61773,-6.64521 8.35834,-10.61264c4.82044,-0.42775 9.37465,-1.12706 13.50466,-2.08178c0.20341,0.82054 0.38409,1.62527 0.53975,2.41209l0,0zm-41.41544,19.0363c-3.07022,1.08428 -5.51549,1.11534 -6.99363,0.26304c-3.14529,-1.81412 -4.45286,-8.8168 -2.66927,-18.21026c0.20429,-1.07577 0.44745,-2.18082 0.72771,-3.31036c4.08475,0.90324 8.60559,1.55321 13.43756,1.94493c2.75908,3.88223 5.64826,7.45066 8.5598,10.57519c-0.63613,0.61411 -1.26976,1.19877 -1.89985,1.74969c-3.86874,3.38171 -7.74565,5.78102 -11.16232,6.98777l0,0zm-14.38359,-27.17509c-4.86215,-1.66184 -8.8775,-3.82171 -11.62983,-6.17859c-2.47314,-2.11798 -3.72178,-4.2207 -3.72178,-5.92691c0,-3.63091 5.41326,-8.26215 14.44163,-11.40993c1.09547,-0.38196 2.24223,-0.74191 3.43229,-1.08002c1.24775,4.05883 2.88456,8.30243 4.85985,12.5936c-2.00084,4.35489 -3.6609,8.66611 -4.9209,12.77251c-0.8484,-0.24387 -1.67035,-0.50052 -2.46125,-0.77066l0,0zm4.82151,-32.81962c-1.87394,-9.57699 -0.62938,-16.80153 2.50243,-18.61441c3.33592,-1.93126 10.71257,0.82231 18.48733,7.72577c0.49697,0.44124 0.99589,0.90307 1.49624,1.38087c-2.89716,3.11086 -5.7599,6.65249 -8.49448,10.51183c-4.68963,0.43467 -9.1787,1.13292 -13.30605,2.06793c-0.25949,-1.04382 -0.48934,-2.06936 -0.68546,-3.07199l0,0zm43.01214,10.62081c-0.98666,-1.70426 -1.9996,-3.36822 -3.03223,-4.98675c3.18151,0.40219 6.22971,0.93608 9.09227,1.58942c-0.85941,2.75429 -1.93056,5.63405 -3.19144,8.58624c-0.90449,-1.71721 -1.86116,-3.44862 -2.86859,-5.18891l0,0zm-17.54024,-17.08427c1.96481,2.12863 3.93246,4.50522 5.86781,7.08379c-1.95026,-0.09212 -3.92465,-0.14004 -5.91538,-0.14004c-1.97191,0 -3.93175,0.04686 -5.86994,0.13738c1.9373,-2.55461 3.92199,-4.928 5.9175,-7.08113l0,0zm-17.65259,17.11373c-0.9856,1.70905 -1.92452,3.43105 -2.81481,5.15625c-1.24047,-2.94189 -2.30168,-5.8348 -3.16854,-8.62813c2.84498,-0.63665 5.87881,-1.15723 9.04008,-1.55179c-1.04719,1.63344 -2.06846,3.30965 -3.05673,5.02331l0,0.00035l0,0zm3.14778,25.45522c-3.26617,-0.36438 -6.34561,-0.85816 -9.18988,-1.47725c0.8807,-2.84321 1.96534,-5.79788 3.23209,-8.80313c0.89259,1.72395 1.83524,3.44667 2.82688,5.15945l0.00018,0c1.0101,1.7449 2.05658,3.45413 3.13074,5.12093l0,0zm14.62267,12.08652c-2.01894,-2.17833 -4.03274,-4.58793 -5.99951,-7.17981c1.90926,0.0749 3.85579,0.11324 5.83409,0.11324c2.03243,0 4.04162,-0.04579 6.01921,-0.13383c-1.94174,2.63856 -3.90229,5.05189 -5.85379,7.2004l0,0zm20.33162,-22.52007c1.33277,3.03773 2.45628,5.97697 3.34834,8.77172c-2.89113,0.65955 -6.01264,1.19078 -9.30152,1.58552c1.03512,-1.64036 2.05693,-3.3329 3.06099,-5.0739c1.01577,-1.76141 1.98025,-3.52548 2.89219,-5.28333l0,0zm-6.58203,3.15523c-1.55871,2.70264 -3.15896,5.28263 -4.78353,7.71796c-2.95893,0.21157 -6.01584,0.32055 -9.13149,0.32055c-3.10305,0 -6.12144,-0.09638 -9.02801,-0.28505c-1.69006,-2.46728 -3.32509,-5.05491 -4.87387,-7.73021l0.00036,0c-1.5447,-2.66802 -2.96639,-5.35859 -4.25461,-8.03407c1.28787,-2.68169 2.70583,-5.37528 4.24165,-8.03851l-0.00035,0.00053c1.5399,-2.67033 3.16056,-5.24535 4.83499,-7.69719c2.9655,-0.22417 6.00643,-0.34114 9.07966,-0.34114l0.00018,0c3.08708,0 6.13191,0.11785 9.09652,0.34397c1.64888,2.43392 3.25853,5.00059 4.80447,7.67128c1.5635,2.70069 2.99975,5.37634 4.29862,8.00053c-1.29497,2.66927 -2.72802,5.3719 -4.2846,8.07134l0,0zm8.78734,-47.5683c3.33911,1.92558 4.63763,9.69147 2.5397,19.87494c-0.13383,0.64979 -0.28452,1.31165 -0.44816,1.98238c-4.13693,-0.95454 -8.62919,-1.66485 -13.33249,-2.10609c-2.73991,-3.90176 -5.57921,-7.44889 -8.42916,-10.51981c0.76622,-0.73711 1.53138,-1.43997 2.29334,-2.10325c7.36157,-6.40649 14.24195,-8.9359 17.37678,-7.12816l0,0zm-22.70235,30.55112c4.91753,0 8.90413,3.98642 8.90413,8.90413c0,4.91753 -3.9866,8.90412 -8.90413,8.90412c-4.91753,0 -8.90413,-3.9866 -8.90413,-8.90412c0,-4.91771 3.9866,-8.90413 8.90413,-8.90413l0,0z"/>
  </g>
 </g>
</svg>