<svg width="99.99999999999999" height="99.99999999999999" xmlns="http://www.w3.org/2000/svg">
 <defs>
  <clipPath clipPathUnits="userSpaceOnUse" id="a">
   <path id="svg_1" d="m3.38544,-391.40923l2467.7,0l0,3078.5l-2467.7,0l0,-3078.5z"/>
  </clipPath>
 </defs>
 <g>
  <title>background</title>
  <rect fill="none" id="canvas_background" height="102" width="102" y="-1" x="-1"/>
 </g>
 <g>
  <title>Layer 1</title>
  <g id="svg_2" transform="matrix(0.4164677583893501,0,0,-0.4164677583893501,-24.590865477751706,145.8112439020543) ">
   <g id="svg_3" transform="matrix(0.19707,0,0,0.19707,-56.668,-255.78) ">
    <g id="svg_4" clip-path="url(#a)" fill="#222c37">
     <path id="svg_5" d="m1267.28544,2552.79077l-42.52,0l0,-98.34c0,-25.32 -10.39,-45.44 -40.9,-45.44c-30.18,-0.33 -38.94,20.44 -38.94,46.73l0,97.05l-42.52,0l0,-107.76c0,-31.15 11.03,-75.62 69.46,-75.95c32.13,-0.32 48.03,15.26 55.5,29.21l0,-23.69l39.92,0l0,178.19"/>
     <path id="svg_6" d="m1284.18544,2374.59077l42.52,0l0,98.35c0,24.99 10.38,45.11 40.57,45.44c29.86,0 38.62,-20.45 38.62,-47.06l0,-96.73l42.52,0l0,107.44c0,31.48 -11.03,75.95 -69.13,76.27c-31.81,0.32 -47.72,-15.25 -55.5,-29.21c0.32,8.44 0.32,15.9 0.32,23.69l-39.92,0l0,-178.19"/>
     <path id="svg_7" d="m1464.68544,2374.59077l42.52,0l0,178.19l-42.52,0l0,-178.19zm0,202.21l42.52,0l0,37.98l-42.52,0l0,-37.98"/>
     <path id="svg_8" d="m1551.68544,2374.59077l42.52,0l0,145.41l30.51,0l-12.62,32.78l-17.89,0l0,62l-42.52,0l0,-62l-29.54,0l0,-32.78l29.54,0l0,-145.41"/>
     <path id="svg_9" d="m1665.78544,2312.29077l45.44,0l93.81,240.51l-45.44,0l-42.85,-118.47l-43.49,118.47l-45.44,0l67.18,-171.37l-29.21,-69.14"/>
     <path id="svg_10" d="m869.28544,2465.29077l77.609,134.02l37.504,-134.02l-37.504,-133.99l-77.609,133.99zm-37.829,-21.76l77.622,-134l-135.18,34.63l-97.668,99.37l155.23,0l-0.004,0zm77.606,177.56l-77.606,-134.02l-155.23,0l97.668,99.37l135.17,34.65l-0.002,0zm110.8,-110.19l-47.353,176.15l-176.73,-47.21l-26.161,-45.99l-53.085,0.38l-129.36,-128.95l129.36,-128.92l0.003,0l53.063,0.39l26.199,-45.99l176.71,-47.21l47.353,176.13l-26.892,45.61l26.892,45.61"/>
    </g>
   </g>
  </g>
 </g>
</svg>