<svg width="100" height="100" xmlns="http://www.w3.org/2000/svg">

 <g>
  <title>background</title>
  <rect fill="none" id="canvas_background" height="102" width="102" y="-1" x="-1"/>
 </g>
 <g>
  <title>Layer 1</title>
  <g stroke="null" id="surface1">
   <path stroke="null" id="svg_1" fill=" #fff" d="m50,0.12128c-27.50224,0 -49.87872,22.37648 -49.87872,49.87872c0,27.50224 22.37648,49.87872 49.87872,49.87872c27.50224,0 49.87872,-22.37648 49.87872,-49.87872c0,-27.50224 -22.37648,-49.87872 -49.87872,-49.87872zm0,7.67365c23.35068,0 42.20507,18.85439 42.20507,42.20507c0,23.35068 -18.85439,42.20507 -42.20507,42.20507c-23.35068,0 -42.20507,-18.85439 -42.20507,-42.20507c0,-23.35068 18.85439,-42.20507 42.20507,-42.20507zm0,11.51047c-18.25488,3.22232 -34.53142,20.05339 -34.53142,38.36824c8.93263,-15.76693 14.89766,-16.90601 16.54631,-16.90601c1.64865,0 2.51792,0.85431 2.51792,2.75772l0,23.50055c0,2.92259 -5.6803,2.44298 -7.55375,2.15821c6.93924,10.32647 23.02095,11.51047 23.02095,11.51047l7.67365,-7.67365l7.67365,3.83682c12.10998,-5.5454 19.18412,-17.41558 19.18412,-19.18412c-5.26063,5.8002 -10.4913,7.67365 -11.51047,7.67365c-1.01914,0 -3.83682,-0.52457 -3.83682,-1.91841l0,-27.81698c0,-2.41302 5.5754,-9.78689 7.67365,-12.46968c-13.84852,3.62699 -17.86521,9.95176 -17.86521,9.95176c0,0 -1.04914,-2.27811 -5.15573,-2.27811c1.52874,1.31891 3.83682,4.88597 3.83682,7.67365l0,23.50055c0,0 -5.00587,3.35722 -7.67365,3.35722c-2.66778,0 -3.95673,-1.07911 -3.95673,-3.11742c0,-2.03831 0.1199,-27.57718 0.1199,-27.57718c0,0 -3.83682,1.40884 -3.83682,-6.47464c0,-3.94172 7.67365,-8.87266 7.67365,-8.87266z"/>
  </g>
 </g>
</svg>