<svg width="100" height="100" xmlns="http://www.w3.org/2000/svg">

 <g>
  <title>background</title>
  <rect fill="none" id="canvas_background" height="102" width="102" y="-1" x="-1"/>
 </g>
 <g>
  <title>Layer 1</title>
  <g stroke="null" id="svg_1">
   <g stroke="null" id="svg_2">
    <g stroke="null" id="svg_3">
     <path stroke="null" id="svg_4" d="m99.74073,49.36522c-7.06348,-21.9795 -27.05346,-36.74541 -49.74084,-36.74541s-42.67717,14.76592 -49.74064,36.74541c-0.1318,0.41177 -0.1318,0.8578 0,1.26956c7.06348,21.9795 27.05346,36.74541 49.74084,36.74541s42.67717,-14.76592 49.74084,-36.74541c0.13161,-0.41177 0.13161,-0.8578 -0.00019,-1.26956zm-49.74084,29.70822c-16.03139,0 -29.07334,-13.04215 -29.07334,-29.07334s13.04215,-29.07334 29.07334,-29.07334s29.07334,13.04215 29.07334,29.07334s-13.04195,29.07334 -29.07334,29.07334z"/>
     <circle stroke="null" id="svg_5" r="16.61331" cy="49.9999" cx="49.99989"/>
    </g>
   </g>
  </g>
  <g id="svg_6"/>
  <g id="svg_7"/>
  <g id="svg_8"/>
  <g id="svg_9"/>
  <g id="svg_10"/>
  <g id="svg_11"/>
  <g id="svg_12"/>
  <g id="svg_13"/>
  <g id="svg_14"/>
  <g id="svg_15"/>
  <g id="svg_16"/>
  <g id="svg_17"/>
  <g id="svg_18"/>
  <g id="svg_19"/>
  <g id="svg_20"/>
 </g>
</svg>