<svg width="100" height="100" xmlns="http://www.w3.org/2000/svg">

 <g>
  <title>background</title>
  <rect fill="none" id="canvas_background" height="102" width="102" y="-1" x="-1"/>
 </g>
 <g>
  <title>Layer 1</title>
  <g stroke="null" id="svg_1">
   <g stroke="null" id="svg_19">
    <path stroke="null" id="svg_2" d="m50.00001,78.56988c3.69705,0 6.77451,-2.83258 7.08589,-6.51681l4.8066,-57.40674c0.2798,-3.32944 -0.84908,-6.6208 -3.10903,-9.07905c-2.25718,-2.4551 -5.44475,-3.85412 -8.78346,-3.85412s-6.52628,1.39902 -8.78366,3.85412c-2.26034,2.45826 -3.38864,5.74961 -3.10883,9.07905l4.8066,57.40674c0.31138,3.68423 3.38883,6.51681 7.08589,6.51681z"/>
    <path stroke="null" id="svg_3" d="m50.00001,82.79498c-4.27876,0 -7.74613,3.46717 -7.74613,7.74613c0,4.27857 3.46737,7.74574 7.74613,7.74574s7.74613,-3.46717 7.74613,-7.74574c0,-4.27896 -3.46737,-7.74613 -7.74613,-7.74613z"/>
   </g>
  </g>
  <g id="svg_4"/>
  <g id="svg_5"/>
  <g id="svg_6"/>
  <g id="svg_7"/>
  <g id="svg_8"/>
  <g id="svg_9"/>
  <g id="svg_10"/>
  <g id="svg_11"/>
  <g id="svg_12"/>
  <g id="svg_13"/>
  <g id="svg_14"/>
  <g id="svg_15"/>
  <g id="svg_16"/>
  <g id="svg_17"/>
  <g id="svg_18"/>
 </g>
</svg>