<svg width="100" height="100" xmlns="http://www.w3.org/2000/svg">
 <g>
  <title>background</title>
  <rect fill="none" id="canvas_background" height="102" width="102" y="-1" x="-1"/>
 </g>

 <g>
  <title>Layer 1</title>
  <g stroke="null" id="svg_1">
   <path stroke="null" id="svg_2" fill="#FFFFFF" d="m50,0.01493c-27.71899,0 -49.98507,22.26608 -49.98507,49.98507s22.26608,49.98507 49.98507,49.98507s49.98507,-22.26608 49.98507,-49.98507s-22.26608,-49.98507 -49.98507,-49.98507zm28.85502,34.30793l0,0l-36.35278,37.71601c-0.45441,0.45441 -0.90882,0.68161 -1.59043,0.68161c-0.68161,0 -1.36323,-0.2272 -1.59043,-0.68161l-17.72198,-19.08521l-0.45441,-0.45441c-0.45441,-0.45441 -0.68161,-1.13602 -0.68161,-1.59043s0.2272,-1.13602 0.68161,-1.59043l3.18087,-3.18087c0.90882,-0.90882 2.27205,-0.90882 3.18087,0l0.2272,0.2272l12.49627,13.40509c0.45441,0.45441 1.13602,0.45441 1.59043,0l30.44545,-31.58148l0.2272,0c0.90882,-0.90882 2.27205,-0.90882 3.18087,0l3.18087,3.18087c0.90882,0.68161 0.90882,2.04484 0,2.95366z"/>
  </g>
 </g>
</svg>