<svg width="100" height="100" xmlns="http://www.w3.org/2000/svg">

 <g>
  <title>background</title>
  <rect fill="none" id="canvas_background" height="102" width="102" y="-1" x="-1"/>
 </g>
 <g>
  <title>Layer 1</title>
  <g stroke="null" id="svg_1">
   <path stroke="null" id="svg_2" fill="#3dc46a" d="m67.66091,59.49434c-0.2138,-0.66879 0.02267,-1.39746 0.58896,-1.81254l12.65934,-9.28765c2.01551,-1.47865 2.81894,-3.97013 2.04629,-6.34726c-0.77231,-2.37748 -2.8866,-3.92107 -5.38619,-3.93258l-15.70088,-0.07273c-0.70228,-0.00338 -1.32202,-0.4533 -1.54191,-1.12007l-4.92105,-14.9103c-0.78347,-2.37375 -2.90453,-3.90721 -5.40412,-3.90754l0,0c-2.4996,0 -4.62099,1.53379 -5.40446,3.90721l-2.21814,6.71802c-0.35148,1.06425 0.22631,2.21239 1.2909,2.56353c1.06459,0.35216 2.21205,-0.22631 2.56387,-1.2909l2.21814,-6.71802c0.34302,-1.03955 1.27263,-1.1204 1.54969,-1.1204c0.27672,0 1.20633,0.08085 1.54935,1.1204l4.92105,14.91064c0.76791,2.32572 2.92888,3.8957 5.37774,3.90721l15.70088,0.07273c1.09469,0.00507 1.45903,0.86432 1.54428,1.12751c0.08559,0.26319 0.296,1.17216 -0.58659,1.81964l-12.65968,9.28765c-1.97458,1.44888 -2.79999,3.98941 -2.05407,6.32223l4.78438,14.95969c0.33355,1.04294 -0.3711,1.6549 -0.59505,1.81727c-0.22395,0.16272 -1.02332,0.6441 -1.91199,0.0044l-12.74561,-9.17229c-1.98845,-1.43061 -4.66023,-1.43061 -6.64868,0l-12.74798,9.17398c-0.88868,0.63936 -1.68839,0.15832 -1.91199,-0.00406c-0.22395,-0.16272 -0.9286,-0.77434 -0.59538,-1.81694l4.78303,-14.96206c0.74592,-2.33248 -0.07984,-4.87301 -2.05407,-6.32189l-12.65901,-9.28765c-0.88259,-0.64748 -0.67217,-1.55679 -0.58659,-1.81964c0.08559,-0.26319 0.44992,-1.12243 1.54428,-1.12751l15.70189,-0.07273c1.12074,-0.00541 2.02532,-0.91811 2.02024,-2.03919c-0.00541,-1.1177 -0.91303,-2.02024 -2.02972,-2.02024c-0.00304,0 -0.00643,0 -0.00947,0l-15.70189,0.07273c-2.4996,0.0115 -4.61389,1.5551 -5.38619,3.93258c-0.77231,2.37748 0.03078,4.86895 2.04595,6.3476l12.65901,9.28765c0.56595,0.41542 0.80275,1.14375 0.58896,1.81254l-4.78269,14.96206c-0.76114,2.38086 0.05379,4.86861 2.07606,6.33745c1.01486,0.73713 2.17924,1.10586 3.3443,1.10586c1.1566,0 2.31388,-0.36366 3.32501,-1.09097l12.74764,-9.17398c0.57001,-0.41034 1.33623,-0.41034 1.90624,0l12.74561,9.17229c2.02904,1.46004 4.6467,1.45463 6.66931,-0.01488c2.02261,-1.46918 2.83721,-3.95693 2.07572,-6.33813l-4.78472,-14.96071z"/>
   <path stroke="null" id="svg_3" fill="#3dc46a" d="m50,0.12952c-27.49861,0 -49.87049,22.37188 -49.87049,49.87049s22.37188,49.87049 49.87049,49.87049c1.12074,0 2.02972,-0.90897 2.02972,-2.02972s-0.90897,-2.02972 -2.02972,-2.02972c-25.26017,0.00034 -45.81105,-20.55055 -45.81105,-45.81105s20.55088,-45.81105 45.81105,-45.81105s45.81105,20.55088 45.81105,45.81105c0,15.72354 -7.92266,30.16904 -21.19363,38.64175c-0.94483,0.60316 -1.22189,1.85821 -0.61873,2.80304c0.60316,0.94483 1.85787,1.22189 2.80304,0.61873c14.44482,-9.22236 23.06875,-24.94691 23.06875,-42.06318c0.00034,-27.49894 -22.37154,-49.87082 -49.87049,-49.87082z"/>
  </g>
  <g id="svg_4"/>
  <g id="svg_5"/>
  <g id="svg_6"/>
  <g id="svg_7"/>
  <g id="svg_8"/>
  <g id="svg_9"/>
  <g id="svg_10"/>
  <g id="svg_11"/>
  <g id="svg_12"/>
  <g id="svg_13"/>
  <g id="svg_14"/>
  <g id="svg_15"/>
  <g id="svg_16"/>
  <g id="svg_17"/>
  <g id="svg_18"/>
 </g>
</svg>