<svg width="100" height="100" xmlns="http://www.w3.org/2000/svg">
 <g>
  <title>background</title>
  <rect x="-1" y="-1" width="102" height="102" id="canvas_background" fill="none"/>
 </g>

 <g>
  <title>Layer 1</title>
  <g stroke="null" id="svg_5">
   <path stroke="null" fill="#2196F3" d="m81.73312,67.148663l-10.689894,-3.719808c-0.782225,-0.271392 -1.650759,-0.052603 -2.211077,0.557007c-4.739721,5.488242 -11.582196,8.712413 -18.832052,8.873729c-7.247713,-0.161316 -14.088435,-3.383734 -18.827961,-8.869442c-0.560319,-0.60961 -1.429047,-0.828399 -2.211077,-0.557007l-10.689894,3.719808c-10.863484,3.775723 -18.145486,14.014791 -18.146655,25.515355l0,3.050776c0,1.147719 0.930488,2.078206 2.078206,2.078206l95.594568,0c1.147719,0 2.078206,-0.930488 2.078206,-2.078206l0,-3.050776c0.000974,-11.500954 -7.279469,-21.74197 -18.142369,-25.519641z" id="svg_1"/>
   <path stroke="null" fill="#FFE082" d="m74.937598,27.680667c0,-0.178655 0,-0.357505 0,-0.540252c0,-13.772622 -11.165074,-24.937697 -24.937697,-24.937697s-24.937697,11.165074 -24.937697,24.937697c0,0.178655 0,0.361597 0,0.540252c-2.981419,2.354664 -4.549766,6.071745 -4.156218,9.85039c0,5.781454 2.552023,10.17458 5.980956,10.390642c3.769684,12.518724 12.884412,20.781479 23.112959,20.781479s19.339184,-8.270938 23.113153,-20.781479c3.428933,-0.216062 5.980956,-4.609383 5.980956,-10.390642c0.393353,-3.778646 -1.174994,-7.495726 -4.156413,-9.85039z" id="svg_2"/>
   <path stroke="null" fill="#F44336" d="m47.921695,43.728075c-1.013484,0.011884 -1.881432,-0.723193 -2.036514,-1.724792c-0.082022,-3.539399 1.925658,-6.795912 5.124697,-8.31263c2.323297,-1.303189 3.581287,-3.922232 3.146241,-6.550237c0.200086,-2.095351 -1.336505,-3.956327 -3.431856,-4.156218c-0.240999,-0.022989 -0.483558,-0.022989 -0.724362,0c-2.095351,-0.200086 -3.956327,1.336505 -4.156218,3.431856c-0.022989,0.240999 -0.022989,0.483558 0,0.724362c0,1.147719 -0.930488,2.078206 -2.078206,2.078206c-1.147719,0 -2.078206,-0.930488 -2.078206,-2.078206c-0.204372,-4.386502 3.185596,-8.108063 7.572098,-8.31263c0.246649,-0.011495 0.493688,-0.011495 0.740533,0c4.386502,-0.204372 8.108063,3.185596 8.31263,7.572098c0.011495,0.246649 0.011495,0.493688 0,0.740533c0.436605,4.086275 -1.583933,8.044161 -5.149634,10.087298c-3.325091,2.024045 -3.187934,4.123097 -3.179556,4.210379c0.098777,1.122781 -0.703321,2.12438 -1.820452,2.273422c-0.080073,0.009936 -0.160536,0.015586 -0.241194,0.01656z" id="svg_3"/>
   <circle stroke="null" fill="#F44336" cx="47.921695" cy="49.999906" r="2.078206" id="svg_4"/>
  </g>
 </g>
</svg>