<svg width="100" height="100" xmlns="http://www.w3.org/2000/svg">
 <g>
  <title>background</title>
  <rect x="-1" y="-1" width="102" height="102" id="canvas_background" fill="none"/>
 </g>

 <g>
  <title>Layer 1</title>
  <g stroke="null" id="svg_7">
   <path stroke="null" d="m0.078231,49.999954c-0.025216,14.473132 6.260287,28.238536 17.214109,37.698731l0,-15.320389c0,-11.40855 9.248381,-20.656931 20.656931,-20.656931l12.049876,0l0,-51.642328c-27.570312,0 -49.920917,22.350605 -49.920917,49.920917zm0,0" fill="#e6e7e8" id="svg_1"/>
   <path stroke="null" d="m49.999148,0.079037l0,51.642328l12.049876,0c11.40855,0 20.656931,9.248381 20.656931,20.656931l0,15.320389c15.742337,-13.64941 21.34869,-35.642788 14.062112,-55.163319c-7.286578,-19.520531 -25.932955,-32.460532 -46.768919,-32.456329zm0,0" fill="#f1f2f2" id="svg_2"/>
   <path stroke="null" d="m34.50645,29.343022c0,8.556623 6.936076,15.492698 15.492698,15.492698l0,-30.985397c-8.556623,0 -15.492698,6.936076 -15.492698,15.492698zm0,0" fill="#2b3990" id="svg_3"/>
   <path stroke="null" d="m49.999148,13.850324l0,30.985397c8.556623,0 15.492698,-6.936076 15.492698,-15.492698s-6.936076,-15.492698 -15.492698,-15.492698zm0,0" fill="#434f9c" id="svg_4"/>
   <path stroke="null" d="m37.949272,51.721365c-11.40855,0 -20.656931,9.248381 -20.656931,20.656931l0,15.320389c9.061783,7.901848 20.683828,12.24488 32.706808,12.222186l0,-48.199506l-12.049876,0zm0,0" fill="#2b3990" id="svg_5"/>
   <path stroke="null" d="m62.049025,51.721365l-12.049876,0l0,48.199506c12.022979,0.022694 23.645025,-4.320338 32.706808,-12.222186l0,-15.320389c0,-11.40855 -9.248381,-20.656931 -20.656931,-20.656931zm0,0" fill="#434f9c" id="svg_6"/>
  </g>
 </g>
</svg>