<svg width="100" height="100" xmlns="http://www.w3.org/2000/svg">
 <g>
  <title>background</title>
  <rect x="-1" y="-1" width="47.454012" height="47.454012" id="canvas_background" fill="none"/>
 </g>

 <g>
  <title>Layer 1</title>
  <g stroke="null" id="svg_4">
   <path stroke="null" d="m35.155016,78.334453l-14.884461,8.118968c-0.873453,0.476258 -1.658431,1.061697 -2.388818,1.699844c8.678053,7.317048 19.88046,11.731373 32.120092,11.731373c12.149274,0 23.280148,-4.348439 31.93373,-11.565718c-0.798155,-0.673914 -1.664078,-1.28006 -2.624123,-1.7582l-15.938628,-7.968373c-2.059391,-1.029695 -3.360157,-3.134264 -3.360157,-5.43649l0,-6.253469c0.448021,-0.510142 0.960045,-1.165231 1.507835,-1.938914c2.172337,-3.068379 3.815708,-6.443596 4.954585,-9.984467c2.044331,-0.630618 3.550284,-2.518706 3.550284,-4.762576l0,-6.675136c0,-1.468304 -0.653207,-2.780365 -1.667843,-3.698997l0,-9.649393c0,0 1.98221,-15.016232 -18.3538,-15.016232s-18.3538,15.016232 -18.3538,15.016232l0,9.649393c-1.016518,0.918631 -1.667843,2.230693 -1.667843,3.698997l0,6.675136c0,1.7582 0.924279,3.305566 2.307873,4.199726c1.667843,7.260575 6.035106,12.486231 6.035106,12.486231l0,6.099109c-0.001882,2.22128 -1.217939,4.267494 -3.170031,5.332955z" fill="#E7ECED" id="svg_1"/>
   <g stroke="null" id="svg_2">
    <path stroke="null" d="m50.854574,0.122792c-27.54576,-0.47061 -50.259293,21.478652 -50.729904,49.024412c-0.267307,15.618613 6.69396,29.655976 17.777773,38.991001c0.72474,-0.6325 1.502188,-1.212292 2.366228,-1.682902l14.884461,-8.118968c1.952091,-1.065462 3.168148,-3.111675 3.168148,-5.33672l0,-6.099109c0,0 -4.369146,-5.225656 -6.035106,-12.486231c-1.381712,-0.894159 -2.307873,-2.439644 -2.307873,-4.199726l0,-6.675136c0,-1.468304 0.653207,-2.780365 1.667843,-3.698997l0,-9.649393c0,0 -1.98221,-15.016232 18.3538,-15.016232s18.3538,15.016232 18.3538,15.016232l0,9.649393c1.016518,0.918631 1.667843,2.230693 1.667843,3.698997l0,6.675136c0,2.24387 -1.505953,4.131958 -3.550284,4.762576c-1.138877,3.540872 -2.782248,6.916088 -4.954585,9.984467c-0.54779,0.773683 -1.059814,1.428773 -1.507835,1.938914l0,6.253469c0,2.302225 1.300767,4.408677 3.360157,5.43649l15.938628,7.968373c0.95628,0.47814 1.82032,1.082404 2.616593,1.754435c10.748738,-8.964184 17.693063,-22.367164 17.950958,-37.460577c0.474375,-27.54576 -21.473005,-50.259293 -49.020647,-50.729904z" fill="#556080" id="svg_3"/>
   </g>
  </g>
 </g>
</svg>