<svg width="100" height="100" xmlns="http://www.w3.org/2000/svg">
 <g>
  <title>background</title>
  <rect x="-1" y="-1" width="102" height="102" id="canvas_background" fill="none"/>
 </g>

 <g>
  <title>Layer 1</title>
  <g stroke="null" id="svg_7">
   <path stroke="null" d="m87.914055,66.705922c-2.676081,7.252688 -6.723245,13.558911 -12.03059,18.741681c-6.041121,5.899076 -13.951626,10.586585 -23.511987,13.930357c-0.313716,0.109383 -0.641105,0.199016 -0.970013,0.265101c-0.434493,0.085835 -0.876582,0.132171 -1.314873,0.138248l-0.085835,0c-0.467156,0 -0.93659,-0.047095 -1.402227,-0.138248c-0.328908,-0.066085 -0.651739,-0.155719 -0.963936,-0.262822c-9.571756,-3.338455 -17.492135,-8.023685 -23.539333,-13.922761c-5.309624,-5.18277 -9.356028,-11.485195 -12.028311,-18.737883c-4.85918,-13.186706 -4.582684,-27.713351 -4.36012,-39.386927l0.003798,-0.179266c0.044817,-0.963936 0.073681,-1.976487 0.089633,-3.094622c0.081277,-5.48965 4.445955,-10.031315 9.936365,-10.337435c11.447215,-0.638826 20.302665,-4.372274 27.869069,-11.747258l0.066085,-0.060768c1.256383,-1.152318 2.839395,-1.717462 4.414812,-1.693914c1.519206,0.01975 3.032335,0.584135 4.243901,1.693914l0.064566,0.060768c7.567923,7.374984 16.423373,11.108432 27.870589,11.747258c5.490409,0.30612 9.855087,4.847786 9.936365,10.337435c0.015952,1.125732 0.044816,2.136763 0.089633,3.094622l0.002279,0.07596c0.221804,11.695605 0.49678,26.251115 -4.37987,39.47656zm0,0" fill="rgb(0%,86.666667%,50.196078%)" fill-rule="nonzero" id="svg_1"/>
   <path stroke="null" d="m87.914055,66.705922c-2.676081,7.252688 -6.723245,13.558911 -12.03059,18.741681c-6.041121,5.899076 -13.951626,10.586585 -23.511987,13.930357c-0.313716,0.109383 -0.641105,0.199016 -0.970013,0.265101c-0.434493,0.085835 -0.876582,0.132171 -1.314873,0.138248l0,-99.561906c1.519206,0.01975 3.032335,0.584135 4.243901,1.693914l0.064566,0.060768c7.567923,7.374984 16.423373,11.108432 27.870589,11.747258c5.490409,0.30612 9.855087,4.847786 9.936365,10.337435c0.015952,1.125732 0.044816,2.136763 0.089633,3.094622l0.002279,0.07596c0.221804,11.695605 0.49678,26.251115 -4.37987,39.47656zm0,0" fill="rgb(0%,66.666667%,38.823529%)" fill-rule="nonzero" id="svg_2"/>
   <path stroke="null" d="m74.812424,49.999976c0,13.652342 -11.084884,24.765332 -24.725833,24.813947l-0.087354,0c-13.681207,0 -24.813947,-11.13198 -24.813947,-24.813947c0,-13.681207 11.132739,-24.813187 24.813947,-24.813187l0.087354,0c13.640948,0.048615 24.725833,11.161604 24.725833,24.813187zm0,0" fill="rgb(100%,100%,100%)" fill-rule="nonzero" id="svg_3"/>
   <path stroke="null" d="m74.812424,49.999976c0,13.652342 -11.084884,24.765332 -24.725833,24.813947l0,-49.627134c13.640948,0.048615 24.725833,11.161604 24.725833,24.813187zm0,0" fill="rgb(88.235294%,92.156863%,94.117647%)" fill-rule="nonzero" id="svg_4"/>
   <path stroke="null" d="m61.261869,46.426804l-11.175277,11.176796l-2.414778,2.414778c-0.570462,0.570462 -1.318671,0.855313 -2.06612,0.855313c-0.748209,0 -1.495658,-0.284851 -2.066879,-0.855313l-5.191886,-5.194164c-1.140923,-1.140924 -1.140923,-2.989037 0,-4.13072c1.139404,-1.140923 2.989797,-1.140923 4.13072,0l3.128045,3.128045l11.525454,-11.525454c1.140924,-1.141683 2.991316,-1.141683 4.13072,0c1.140923,1.140924 1.140923,2.991316 0,4.13072zm0,0" fill="rgb(70.588235%,82.352941%,84.313725%)" fill-rule="nonzero" id="svg_5"/>
   <path stroke="null" d="m61.261869,46.426804l-11.175277,11.176796l0,-8.263719l7.044557,-7.043797c1.140924,-1.141683 2.991316,-1.141683 4.13072,0c1.140923,1.140924 1.140923,2.991316 0,4.13072zm0,0" fill="rgb(43.529412%,64.705882%,66.666667%)" fill-rule="nonzero" id="svg_6"/>
  </g>
 </g>
</svg>