<svg width="100.00000000000001" height="100.00000000000001" xmlns="http://www.w3.org/2000/svg">

 <g>
  <title>background</title>
  <rect fill="none" id="canvas_background" height="102" width="102" y="-1" x="-1"/>
 </g>
 <g>
  <title>Layer 1</title>
  <g id="svg_1" transform="matrix(0.06479820726029221,0,0,-0.06479820726029221,8.594672009004036,103.35925836452519) ">
   <path id="svg_2" d="m1342.988709,314.468152q0,-120 -73,-189.5q-73,-69.5 -194,-69.5l-874,0q-121,0 -194,69.5q-73,69.5 -73,189.5q0,53 3.5,103.5q3.5,50.5 14,109q10.5,58.5 26.5,108.5q16,50 43,97.5q27,47.5 62,81q35,33.5 85.5,53.5q50.5,20 111.5,20q9,0 42,-21.5q33,-21.5 74.5,-48q41.5,-26.5 108,-48q66.5,-21.5 133.5,-21.5q67,0 133.5,21.5q66.5,21.5 108,48q41.5,26.5 74.5,48q33,21.5 42,21.5q61,0 111.5,-20q50.5,-20 85.5,-53.5q35,-33.5 62,-81q27,-47.5 43,-97.5q16,-50 26.5,-108.5q10.5,-58.5 14,-109q3.5,-50.5 3.5,-103.5zm-320,893q0,-159 -112.5,-271.5q-112.5,-112.5 -271.5,-112.5q-159,0 -271.5,112.5q-112.5,112.5 -112.5,271.5q0,159 112.5,271.5q112.5,112.5 271.5,112.5q159,0 271.5,-112.5q112.5,-112.5 112.5,-271.5z" fill="#484848"/>
  </g>
 </g>
</svg>