<svg width="100.00000000000001" height="100.00000000000001" xmlns="http://www.w3.org/2000/svg">

 <g>
  <title>background</title>
  <rect fill="none" id="canvas_background" height="102" width="102" y="-1" x="-1"/>
 </g>
 <g>
  <title>Layer 1</title>
  <path stroke="null" id="svg_1" fill="#1E201D" d="m3.65961,53.5511c-1.96437,0 -3.52571,-1.61212 -3.52571,-3.57649c0,-1.96437 1.56134,-3.52571 3.52571,-3.52571l42.76233,0l0,-42.7655c0.00317,-1.96437 1.61529,-3.57649 3.57966,-3.57649c1.96437,0 3.52571,1.61212 3.52571,3.57649l0,42.7655l42.76233,0c1.96437,0 3.57649,1.56134 3.57649,3.52571c0,1.96437 -1.61212,3.57649 -3.57649,3.57649l-42.76233,0l0,42.7655c0,1.96437 -1.56134,3.57649 -3.52571,3.57649c-1.96437,0 -3.57649,-1.61212 -3.57649,-3.57649l0,-42.7655l-42.7655,0z"/>
  <g id="svg_2"/>
  <g id="svg_3"/>
  <g id="svg_4"/>
  <g id="svg_5"/>
  <g id="svg_6"/>
  <g id="svg_7"/>
  <g id="svg_8"/>
  <g id="svg_9"/>
  <g id="svg_10"/>
  <g id="svg_11"/>
  <g id="svg_12"/>
  <g id="svg_13"/>
  <g id="svg_14"/>
  <g id="svg_15"/>
  <g id="svg_16"/>
 </g>
</svg>