<svg width="100" height="100" xmlns="http://www.w3.org/2000/svg" preserveAspectRatio="xMidYMid">

 <g>
  <title>background</title>
  <rect fill="none" id="canvas_background" height="102" width="102" y="-1" x="-1"/>
 </g>
 <g>
  <title>Layer 1</title>
  <g stroke="null" id="svg_1">
   <path stroke="null" id="svg_2" fill="#1A1918" d="m0.0544,41.08759l3.90436,0l0,14.22211l7.22988,0l0,3.60272l-11.13424,0l0,-17.82483"/>
   <path stroke="null" id="svg_3" fill="#1A1918" d="m14.78943,40.82339c1.20179,0 2.17717,0.97539 2.17717,2.17612c0,1.20266 -0.97539,2.17577 -2.17717,2.17577c-1.20056,0 -2.17594,-0.9731 -2.17594,-2.17577c0,-1.20073 0.97539,-2.17612 2.17594,-2.17612l0,0zm-1.8766,6.00489l3.75319,0l0,12.07956l-3.75319,0l0,-12.07956z"/>
   <path stroke="null" id="svg_4" fill="#1A1918" d="m18.74159,46.82969l3.60255,0l0,1.65107l0.0501,0c0.49991,-0.95043 1.72613,-1.9506 3.55245,-1.9506c3.80311,0 4.50358,2.50113 4.50358,5.75282l0,6.62486l-3.75301,0l0,-5.87323c0,-1.40182 -0.02584,-3.20266 -1.95235,-3.20266c-1.95095,0 -2.25047,1.5268 -2.25047,3.10211l0,5.97378l-3.75284,0l0,-12.07816"/>
   <path stroke="null" id="svg_5" fill="#1A1918" d="m32.35358,41.08653l3.7516,0l0,10.65313l4.25029,-4.91683l4.59973,0l-4.92228,5.59269l4.81927,6.49689l-4.71627,0l-3.9817,-5.97114l-0.04904,0l0,5.97114l-3.7516,0l0,-17.82589"/>
   <path stroke="null" id="svg_6" fill="#1A1918" d="m56.03108,56.8161c-1.20196,1.5268 -3.17664,2.40322 -5.12899,2.40322c-3.75196,0 -6.7544,-2.50324 -6.7544,-6.38088c0,-3.87764 3.00245,-6.37877 6.7544,-6.37877c3.50464,0 5.70484,2.50113 5.70484,6.37877l0,1.17595l-8.70623,0c0.29812,1.42625 1.37528,2.35207 2.82667,2.35207c1.22639,0 2.05132,-0.62576 2.67708,-1.4767l2.62663,1.92634l0,0zm-3.17664,-5.35276c0.02461,-1.25118 -0.95095,-2.3018 -2.30321,-2.3018c-1.65055,0 -2.55158,1.12585 -2.65054,2.3018l4.95374,0l0,0z"/>
   <path stroke="null" id="svg_7" fill="#1A1918" d="m70.88036,58.90574l-3.45366,0l0,-1.60168l-0.04869,0c-0.57725,0.87537 -2.02688,1.90173 -3.72875,1.90173c-3.60378,0 -5.98011,-2.60097 -5.98011,-6.27928c0,-3.37808 2.10141,-6.48019 5.55367,-6.48019c1.55246,0 3.00332,0.4252 3.85426,1.6008l0.04922,0l0,-6.96059l3.75407,0l0,17.81921l0,0zm-6.45752,-9.15674c-1.87501,0 -3.00051,1.25206 -3.00051,3.0768c0,1.82826 1.1255,3.0775 3.00051,3.0775c1.87818,0 3.00385,-1.24925 3.00385,-3.0775c0,-1.82474 -1.12568,-3.0768 -3.00385,-3.0768l0,0z"/>
   <path stroke="null" id="svg_8" fill="#006087" d="m98.07181,37.34406l-21.57028,0c-1.03076,0 -1.86816,0.81701 -1.86816,1.82439l0,21.66099c0,1.00826 0.8374,1.8265 1.86816,1.8265l21.57028,0c1.03251,0 1.87378,-0.81824 1.87378,-1.8265l0,-21.66099c0,-1.00738 -0.84127,-1.82439 -1.87378,-1.82439"/>
   <path stroke="null" id="svg_9" fill="#FFFFFF" d="m80.26403,40.82884c1.20056,0 2.17577,0.97539 2.17577,2.17612c0,1.20161 -0.97521,2.17735 -2.17577,2.17735c-1.20302,0 -2.177,-0.97574 -2.177,-2.17735c0,-1.20073 0.97398,-2.17612 2.177,-2.17612l0,0zm-1.87782,6.00471l3.75424,0l0,12.07956l-3.75424,0l0,-12.07956z"/>
   <path stroke="null" id="svg_10" fill="#FFFFFF" d="m84.49516,46.83356l3.60149,0l0,1.65037l0.04992,0c0.50096,-0.94955 1.72578,-1.95095 3.5521,-1.95095c3.8017,0 4.50358,2.50183 4.50358,5.75423l0,6.62591l-3.75161,0l0,-5.87429c0,-1.40147 -0.02584,-3.20318 -1.95095,-3.20318c-1.95376,0 -2.25293,1.52609 -2.25293,3.10176l0,5.97571l-3.75161,0l0,-12.07956"/>
  </g>
 </g>
</svg>