<svg width="100" height="100" xmlns="http://www.w3.org/2000/svg">

 <g>
  <title>background</title>
  <rect fill="none" id="canvas_background" height="102" width="102" y="-1" x="-1"/>
 </g>
 <g>
  <title>Layer 1</title>
  <path stroke="null" id="svg_1" d="m90.83168,0.14957l-81.66335,0c-4.98087,0 -9.01875,4.03788 -9.01875,9.01875l0,81.66309c0,4.98113 4.03788,9.01901 9.01875,9.01901l81.66309,0c4.98113,0 9.01901,-4.03788 9.01901,-9.01901l0,-81.66309c0,-4.98087 -4.03788,-9.01875 -9.01875,-9.01875zm-59.83043,86.0883c0,1.44958 -1.17501,2.62459 -2.62459,2.62459l-11.17224,0c-1.44958,0 -2.62459,-1.17501 -2.62459,-2.62459l0,-46.83356c0,-1.44958 1.17501,-2.62459 2.62459,-2.62459l11.17224,0c1.44958,0 2.62459,1.17501 2.62459,2.62459l0,46.83356zm-8.2107,-53.87291c-5.86173,0 -10.6137,-4.75197 -10.6137,-10.6137s4.75197,-10.6137 10.6137,-10.6137s10.6137,4.75197 10.6137,10.6137s-4.75171,10.6137 -10.6137,10.6137zm66.59652,54.08432a2.41344,2.41344 0 0 1 -2.41318,2.41318l-11.98864,0a2.41344,2.41344 0 0 1 -2.41318,-2.41318l0,-21.9676c0,-3.27708 0.96125,-14.36032 -8.56409,-14.36032c-7.38856,0 -8.88721,7.58614 -9.18814,10.99058l0,25.33733a2.41318,2.41318 0 0 1 -2.41318,2.41318l-11.59505,0a2.41344,2.41344 0 0 1 -2.41318,-2.41318l0,-47.25638a2.41344,2.41344 0 0 1 2.41318,-2.41318l11.59505,0a2.41344,2.41344 0 0 1 2.41318,2.41318l0,4.08591c2.73969,-4.11149 6.81124,-7.28495 15.48025,-7.28495c19.19685,0 19.08697,17.93467 19.08697,27.78887l0,22.66655z" fill="#0077b7"/>
 </g>
</svg>